%TF.GenerationSoftware,KiCad,Pcbnew,5.0.2-bee76a0~70~ubuntu18.04.1*%
%TF.CreationDate,2019-03-26T11:43:16+00:00*%
%TF.ProjectId,enclustra_clockpcb,656e636c-7573-4747-9261-5f636c6f636b,rev?*%
%TF.SameCoordinates,Original*%
%TF.FileFunction,Soldermask,Top*%
%TF.FilePolarity,Negative*%
%FSLAX46Y46*%
G04 Gerber Fmt 4.6, Leading zero omitted, Abs format (unit mm)*
G04 Created by KiCad (PCBNEW 5.0.2-bee76a0~70~ubuntu18.04.1) date Tue 26 Mar 2019 11:43:16 GMT*
%MOMM*%
%LPD*%
G01*
G04 APERTURE LIST*
%ADD10C,0.100000*%
G04 APERTURE END LIST*
D10*
G36*
X100310442Y-127245518D02*
X100376627Y-127252037D01*
X100489853Y-127286384D01*
X100546467Y-127303557D01*
X100685087Y-127377652D01*
X100702991Y-127387222D01*
X100738729Y-127416552D01*
X100840186Y-127499814D01*
X100923448Y-127601271D01*
X100952778Y-127637009D01*
X100952779Y-127637011D01*
X101036443Y-127793533D01*
X101036443Y-127793534D01*
X101087963Y-127963373D01*
X101105359Y-128140000D01*
X101087963Y-128316627D01*
X101053616Y-128429853D01*
X101036443Y-128486467D01*
X100962348Y-128625087D01*
X100952778Y-128642991D01*
X100923448Y-128678729D01*
X100840186Y-128780186D01*
X100738729Y-128863448D01*
X100702991Y-128892778D01*
X100702989Y-128892779D01*
X100546467Y-128976443D01*
X100489853Y-128993616D01*
X100376627Y-129027963D01*
X100310442Y-129034482D01*
X100244260Y-129041000D01*
X100155740Y-129041000D01*
X100089558Y-129034482D01*
X100023373Y-129027963D01*
X99910147Y-128993616D01*
X99853533Y-128976443D01*
X99697011Y-128892779D01*
X99697009Y-128892778D01*
X99661271Y-128863448D01*
X99559814Y-128780186D01*
X99476552Y-128678729D01*
X99447222Y-128642991D01*
X99437652Y-128625087D01*
X99363557Y-128486467D01*
X99346384Y-128429853D01*
X99312037Y-128316627D01*
X99294641Y-128140000D01*
X99312037Y-127963373D01*
X99363557Y-127793534D01*
X99363557Y-127793533D01*
X99447221Y-127637011D01*
X99447222Y-127637009D01*
X99476552Y-127601271D01*
X99559814Y-127499814D01*
X99661271Y-127416552D01*
X99697009Y-127387222D01*
X99714913Y-127377652D01*
X99853533Y-127303557D01*
X99910147Y-127286384D01*
X100023373Y-127252037D01*
X100089558Y-127245518D01*
X100155740Y-127239000D01*
X100244260Y-127239000D01*
X100310442Y-127245518D01*
X100310442Y-127245518D01*
G37*
G36*
X101101000Y-126501000D02*
X99299000Y-126501000D01*
X99299000Y-124699000D01*
X101101000Y-124699000D01*
X101101000Y-126501000D01*
X101101000Y-126501000D01*
G37*
G36*
X102010443Y-99005519D02*
X102076627Y-99012037D01*
X102189853Y-99046384D01*
X102246467Y-99063557D01*
X102385087Y-99137652D01*
X102402991Y-99147222D01*
X102438729Y-99176552D01*
X102540186Y-99259814D01*
X102623448Y-99361271D01*
X102652778Y-99397009D01*
X102652779Y-99397011D01*
X102736443Y-99553533D01*
X102736443Y-99553534D01*
X102787963Y-99723373D01*
X102805359Y-99900000D01*
X102787963Y-100076627D01*
X102753616Y-100189853D01*
X102736443Y-100246467D01*
X102662348Y-100385087D01*
X102652778Y-100402991D01*
X102623448Y-100438729D01*
X102540186Y-100540186D01*
X102438729Y-100623448D01*
X102402991Y-100652778D01*
X102402989Y-100652779D01*
X102246467Y-100736443D01*
X102189853Y-100753616D01*
X102076627Y-100787963D01*
X102010442Y-100794482D01*
X101944260Y-100801000D01*
X101855740Y-100801000D01*
X101789558Y-100794482D01*
X101723373Y-100787963D01*
X101610147Y-100753616D01*
X101553533Y-100736443D01*
X101397011Y-100652779D01*
X101397009Y-100652778D01*
X101361271Y-100623448D01*
X101259814Y-100540186D01*
X101176552Y-100438729D01*
X101147222Y-100402991D01*
X101137652Y-100385087D01*
X101063557Y-100246467D01*
X101046384Y-100189853D01*
X101012037Y-100076627D01*
X100994641Y-99900000D01*
X101012037Y-99723373D01*
X101063557Y-99553534D01*
X101063557Y-99553533D01*
X101147221Y-99397011D01*
X101147222Y-99397009D01*
X101176552Y-99361271D01*
X101259814Y-99259814D01*
X101361271Y-99176552D01*
X101397009Y-99147222D01*
X101414913Y-99137652D01*
X101553533Y-99063557D01*
X101610147Y-99046384D01*
X101723373Y-99012037D01*
X101789557Y-99005519D01*
X101855740Y-98999000D01*
X101944260Y-98999000D01*
X102010443Y-99005519D01*
X102010443Y-99005519D01*
G37*
G36*
X102010442Y-96465518D02*
X102076627Y-96472037D01*
X102189853Y-96506384D01*
X102246467Y-96523557D01*
X102385087Y-96597652D01*
X102402991Y-96607222D01*
X102438729Y-96636552D01*
X102540186Y-96719814D01*
X102623448Y-96821271D01*
X102652778Y-96857009D01*
X102652779Y-96857011D01*
X102736443Y-97013533D01*
X102736443Y-97013534D01*
X102787963Y-97183373D01*
X102805359Y-97360000D01*
X102787963Y-97536627D01*
X102753616Y-97649853D01*
X102736443Y-97706467D01*
X102662348Y-97845087D01*
X102652778Y-97862991D01*
X102623448Y-97898729D01*
X102540186Y-98000186D01*
X102438729Y-98083448D01*
X102402991Y-98112778D01*
X102402989Y-98112779D01*
X102246467Y-98196443D01*
X102189853Y-98213616D01*
X102076627Y-98247963D01*
X102010442Y-98254482D01*
X101944260Y-98261000D01*
X101855740Y-98261000D01*
X101789557Y-98254481D01*
X101723373Y-98247963D01*
X101610147Y-98213616D01*
X101553533Y-98196443D01*
X101397011Y-98112779D01*
X101397009Y-98112778D01*
X101361271Y-98083448D01*
X101259814Y-98000186D01*
X101176552Y-97898729D01*
X101147222Y-97862991D01*
X101137652Y-97845087D01*
X101063557Y-97706467D01*
X101046384Y-97649853D01*
X101012037Y-97536627D01*
X100994641Y-97360000D01*
X101012037Y-97183373D01*
X101063557Y-97013534D01*
X101063557Y-97013533D01*
X101147221Y-96857011D01*
X101147222Y-96857009D01*
X101176552Y-96821271D01*
X101259814Y-96719814D01*
X101361271Y-96636552D01*
X101397009Y-96607222D01*
X101414913Y-96597652D01*
X101553533Y-96523557D01*
X101610147Y-96506384D01*
X101723373Y-96472037D01*
X101789558Y-96465518D01*
X101855740Y-96459000D01*
X101944260Y-96459000D01*
X102010442Y-96465518D01*
X102010442Y-96465518D01*
G37*
G36*
X102010443Y-93925519D02*
X102076627Y-93932037D01*
X102189853Y-93966384D01*
X102246467Y-93983557D01*
X102385087Y-94057652D01*
X102402991Y-94067222D01*
X102438729Y-94096552D01*
X102540186Y-94179814D01*
X102623448Y-94281271D01*
X102652778Y-94317009D01*
X102652779Y-94317011D01*
X102736443Y-94473533D01*
X102736443Y-94473534D01*
X102787963Y-94643373D01*
X102805359Y-94820000D01*
X102787963Y-94996627D01*
X102753616Y-95109853D01*
X102736443Y-95166467D01*
X102662348Y-95305087D01*
X102652778Y-95322991D01*
X102623448Y-95358729D01*
X102540186Y-95460186D01*
X102438729Y-95543448D01*
X102402991Y-95572778D01*
X102402989Y-95572779D01*
X102246467Y-95656443D01*
X102189853Y-95673616D01*
X102076627Y-95707963D01*
X102010442Y-95714482D01*
X101944260Y-95721000D01*
X101855740Y-95721000D01*
X101789558Y-95714482D01*
X101723373Y-95707963D01*
X101610147Y-95673616D01*
X101553533Y-95656443D01*
X101397011Y-95572779D01*
X101397009Y-95572778D01*
X101361271Y-95543448D01*
X101259814Y-95460186D01*
X101176552Y-95358729D01*
X101147222Y-95322991D01*
X101137652Y-95305087D01*
X101063557Y-95166467D01*
X101046384Y-95109853D01*
X101012037Y-94996627D01*
X100994641Y-94820000D01*
X101012037Y-94643373D01*
X101063557Y-94473534D01*
X101063557Y-94473533D01*
X101147221Y-94317011D01*
X101147222Y-94317009D01*
X101176552Y-94281271D01*
X101259814Y-94179814D01*
X101361271Y-94096552D01*
X101397009Y-94067222D01*
X101414913Y-94057652D01*
X101553533Y-93983557D01*
X101610147Y-93966384D01*
X101723373Y-93932037D01*
X101789557Y-93925519D01*
X101855740Y-93919000D01*
X101944260Y-93919000D01*
X102010443Y-93925519D01*
X102010443Y-93925519D01*
G37*
G36*
X102010442Y-91385518D02*
X102076627Y-91392037D01*
X102189853Y-91426384D01*
X102246467Y-91443557D01*
X102385087Y-91517652D01*
X102402991Y-91527222D01*
X102438729Y-91556552D01*
X102540186Y-91639814D01*
X102623448Y-91741271D01*
X102652778Y-91777009D01*
X102652779Y-91777011D01*
X102736443Y-91933533D01*
X102736443Y-91933534D01*
X102787963Y-92103373D01*
X102805359Y-92280000D01*
X102787963Y-92456627D01*
X102753616Y-92569853D01*
X102736443Y-92626467D01*
X102662348Y-92765087D01*
X102652778Y-92782991D01*
X102623448Y-92818729D01*
X102540186Y-92920186D01*
X102438729Y-93003448D01*
X102402991Y-93032778D01*
X102402989Y-93032779D01*
X102246467Y-93116443D01*
X102189853Y-93133616D01*
X102076627Y-93167963D01*
X102010442Y-93174482D01*
X101944260Y-93181000D01*
X101855740Y-93181000D01*
X101789558Y-93174482D01*
X101723373Y-93167963D01*
X101610147Y-93133616D01*
X101553533Y-93116443D01*
X101397011Y-93032779D01*
X101397009Y-93032778D01*
X101361271Y-93003448D01*
X101259814Y-92920186D01*
X101176552Y-92818729D01*
X101147222Y-92782991D01*
X101137652Y-92765087D01*
X101063557Y-92626467D01*
X101046384Y-92569853D01*
X101012037Y-92456627D01*
X100994641Y-92280000D01*
X101012037Y-92103373D01*
X101063557Y-91933534D01*
X101063557Y-91933533D01*
X101147221Y-91777011D01*
X101147222Y-91777009D01*
X101176552Y-91741271D01*
X101259814Y-91639814D01*
X101361271Y-91556552D01*
X101397009Y-91527222D01*
X101414913Y-91517652D01*
X101553533Y-91443557D01*
X101610147Y-91426384D01*
X101723373Y-91392037D01*
X101789558Y-91385518D01*
X101855740Y-91379000D01*
X101944260Y-91379000D01*
X102010442Y-91385518D01*
X102010442Y-91385518D01*
G37*
G36*
X102010442Y-88845518D02*
X102076627Y-88852037D01*
X102189853Y-88886384D01*
X102246467Y-88903557D01*
X102385087Y-88977652D01*
X102402991Y-88987222D01*
X102438729Y-89016552D01*
X102540186Y-89099814D01*
X102623448Y-89201271D01*
X102652778Y-89237009D01*
X102652779Y-89237011D01*
X102736443Y-89393533D01*
X102736443Y-89393534D01*
X102787963Y-89563373D01*
X102805359Y-89740000D01*
X102787963Y-89916627D01*
X102753616Y-90029853D01*
X102736443Y-90086467D01*
X102662348Y-90225087D01*
X102652778Y-90242991D01*
X102623448Y-90278729D01*
X102540186Y-90380186D01*
X102438729Y-90463448D01*
X102402991Y-90492778D01*
X102402989Y-90492779D01*
X102246467Y-90576443D01*
X102189853Y-90593616D01*
X102076627Y-90627963D01*
X102010443Y-90634481D01*
X101944260Y-90641000D01*
X101855740Y-90641000D01*
X101789557Y-90634481D01*
X101723373Y-90627963D01*
X101610147Y-90593616D01*
X101553533Y-90576443D01*
X101397011Y-90492779D01*
X101397009Y-90492778D01*
X101361271Y-90463448D01*
X101259814Y-90380186D01*
X101176552Y-90278729D01*
X101147222Y-90242991D01*
X101137652Y-90225087D01*
X101063557Y-90086467D01*
X101046384Y-90029853D01*
X101012037Y-89916627D01*
X100994641Y-89740000D01*
X101012037Y-89563373D01*
X101063557Y-89393534D01*
X101063557Y-89393533D01*
X101147221Y-89237011D01*
X101147222Y-89237009D01*
X101176552Y-89201271D01*
X101259814Y-89099814D01*
X101361271Y-89016552D01*
X101397009Y-88987222D01*
X101414913Y-88977652D01*
X101553533Y-88903557D01*
X101610147Y-88886384D01*
X101723373Y-88852037D01*
X101789558Y-88845518D01*
X101855740Y-88839000D01*
X101944260Y-88839000D01*
X102010442Y-88845518D01*
X102010442Y-88845518D01*
G37*
G36*
X102801000Y-88101000D02*
X100999000Y-88101000D01*
X100999000Y-86299000D01*
X102801000Y-86299000D01*
X102801000Y-88101000D01*
X102801000Y-88101000D01*
G37*
M02*
