%TF.GenerationSoftware,KiCad,Pcbnew,5.0.2-bee76a0~70~ubuntu18.04.1*%
%TF.CreationDate,2019-03-26T11:43:16+00:00*%
%TF.ProjectId,enclustra_clockpcb,656e636c-7573-4747-9261-5f636c6f636b,rev?*%
%TF.SameCoordinates,Original*%
%TF.FileFunction,Legend,Top*%
%TF.FilePolarity,Positive*%
%FSLAX46Y46*%
G04 Gerber Fmt 4.6, Leading zero omitted, Abs format (unit mm)*
G04 Created by KiCad (PCBNEW 5.0.2-bee76a0~70~ubuntu18.04.1) date Tue 26 Mar 2019 11:43:16 GMT*
%MOMM*%
%LPD*%
G01*
G04 APERTURE LIST*
%ADD10C,0.300000*%
%ADD11C,0.150000*%
%ADD12C,0.250000*%
%ADD13C,0.120000*%
G04 APERTURE END LIST*
D10*
X112678571Y-101528571D02*
X112678571Y-100957142D01*
X113678571Y-101314285D02*
X112392857Y-101314285D01*
X112250000Y-101242857D01*
X112178571Y-101100000D01*
X112178571Y-100957142D01*
X113678571Y-100457142D02*
X112678571Y-100457142D01*
X112178571Y-100457142D02*
X112250000Y-100528571D01*
X112321428Y-100457142D01*
X112250000Y-100385714D01*
X112178571Y-100457142D01*
X112321428Y-100457142D01*
X112678571Y-99957142D02*
X112678571Y-99385714D01*
X112178571Y-99742857D02*
X113464285Y-99742857D01*
X113607142Y-99671428D01*
X113678571Y-99528571D01*
X113678571Y-99385714D01*
X112678571Y-97957142D02*
X112678571Y-97385714D01*
X112178571Y-97742857D02*
X113464285Y-97742857D01*
X113607142Y-97671428D01*
X113678571Y-97528571D01*
X113678571Y-97385714D01*
X113678571Y-96671428D02*
X113607142Y-96814285D01*
X113535714Y-96885714D01*
X113392857Y-96957142D01*
X112964285Y-96957142D01*
X112821428Y-96885714D01*
X112750000Y-96814285D01*
X112678571Y-96671428D01*
X112678571Y-96457142D01*
X112750000Y-96314285D01*
X112821428Y-96242857D01*
X112964285Y-96171428D01*
X113392857Y-96171428D01*
X113535714Y-96242857D01*
X113607142Y-96314285D01*
X113678571Y-96457142D01*
X113678571Y-96671428D01*
X113250000Y-94457142D02*
X113250000Y-93742857D01*
X113678571Y-94600000D02*
X112178571Y-94100000D01*
X113678571Y-93600000D01*
X113678571Y-93100000D02*
X112178571Y-93100000D01*
X113678571Y-92242857D01*
X112178571Y-92242857D01*
X113678571Y-91528571D02*
X112178571Y-91528571D01*
X112178571Y-90528571D02*
X112178571Y-90242857D01*
X112250000Y-90100000D01*
X112392857Y-89957142D01*
X112678571Y-89885714D01*
X113178571Y-89885714D01*
X113464285Y-89957142D01*
X113607142Y-90100000D01*
X113678571Y-90242857D01*
X113678571Y-90528571D01*
X113607142Y-90671428D01*
X113464285Y-90814285D01*
X113178571Y-90885714D01*
X112678571Y-90885714D01*
X112392857Y-90814285D01*
X112250000Y-90671428D01*
X112178571Y-90528571D01*
X113607142Y-89314285D02*
X113678571Y-89100000D01*
X113678571Y-88742857D01*
X113607142Y-88600000D01*
X113535714Y-88528571D01*
X113392857Y-88457142D01*
X113250000Y-88457142D01*
X113107142Y-88528571D01*
X113035714Y-88600000D01*
X112964285Y-88742857D01*
X112892857Y-89028571D01*
X112821428Y-89171428D01*
X112750000Y-89242857D01*
X112607142Y-89314285D01*
X112464285Y-89314285D01*
X112321428Y-89242857D01*
X112250000Y-89171428D01*
X112178571Y-89028571D01*
X112178571Y-88671428D01*
X112250000Y-88457142D01*
X112892857Y-86171428D02*
X112964285Y-85957142D01*
X113035714Y-85885714D01*
X113178571Y-85814285D01*
X113392857Y-85814285D01*
X113535714Y-85885714D01*
X113607142Y-85957142D01*
X113678571Y-86100000D01*
X113678571Y-86671428D01*
X112178571Y-86671428D01*
X112178571Y-86171428D01*
X112250000Y-86028571D01*
X112321428Y-85957142D01*
X112464285Y-85885714D01*
X112607142Y-85885714D01*
X112750000Y-85957142D01*
X112821428Y-86028571D01*
X112892857Y-86171428D01*
X112892857Y-86671428D01*
D11*
G36*
X109400000Y-103700000D02*
X113800000Y-103600000D01*
X113600000Y-119800000D01*
X109400000Y-119700000D01*
X109400000Y-103700000D01*
G37*
X109400000Y-103700000D02*
X113800000Y-103600000D01*
X113600000Y-119800000D01*
X109400000Y-119700000D01*
X109400000Y-103700000D01*
D10*
X99867857Y-119107142D02*
X99867857Y-118607142D01*
X100653571Y-118392857D02*
X100653571Y-119107142D01*
X99153571Y-119107142D01*
X99153571Y-118392857D01*
X99653571Y-117750000D02*
X100653571Y-117750000D01*
X99796428Y-117750000D02*
X99725000Y-117678571D01*
X99653571Y-117535714D01*
X99653571Y-117321428D01*
X99725000Y-117178571D01*
X99867857Y-117107142D01*
X100653571Y-117107142D01*
X100582142Y-115750000D02*
X100653571Y-115892857D01*
X100653571Y-116178571D01*
X100582142Y-116321428D01*
X100510714Y-116392857D01*
X100367857Y-116464285D01*
X99939285Y-116464285D01*
X99796428Y-116392857D01*
X99725000Y-116321428D01*
X99653571Y-116178571D01*
X99653571Y-115892857D01*
X99725000Y-115750000D01*
X100653571Y-114892857D02*
X100582142Y-115035714D01*
X100439285Y-115107142D01*
X99153571Y-115107142D01*
X99653571Y-113678571D02*
X100653571Y-113678571D01*
X99653571Y-114321428D02*
X100439285Y-114321428D01*
X100582142Y-114250000D01*
X100653571Y-114107142D01*
X100653571Y-113892857D01*
X100582142Y-113750000D01*
X100510714Y-113678571D01*
X100582142Y-113035714D02*
X100653571Y-112892857D01*
X100653571Y-112607142D01*
X100582142Y-112464285D01*
X100439285Y-112392857D01*
X100367857Y-112392857D01*
X100225000Y-112464285D01*
X100153571Y-112607142D01*
X100153571Y-112821428D01*
X100082142Y-112964285D01*
X99939285Y-113035714D01*
X99867857Y-113035714D01*
X99725000Y-112964285D01*
X99653571Y-112821428D01*
X99653571Y-112607142D01*
X99725000Y-112464285D01*
X99653571Y-111964285D02*
X99653571Y-111392857D01*
X99153571Y-111750000D02*
X100439285Y-111750000D01*
X100582142Y-111678571D01*
X100653571Y-111535714D01*
X100653571Y-111392857D01*
X100653571Y-110892857D02*
X99653571Y-110892857D01*
X99939285Y-110892857D02*
X99796428Y-110821428D01*
X99725000Y-110750000D01*
X99653571Y-110607142D01*
X99653571Y-110464285D01*
X100653571Y-109321428D02*
X99867857Y-109321428D01*
X99725000Y-109392857D01*
X99653571Y-109535714D01*
X99653571Y-109821428D01*
X99725000Y-109964285D01*
X100582142Y-109321428D02*
X100653571Y-109464285D01*
X100653571Y-109821428D01*
X100582142Y-109964285D01*
X100439285Y-110035714D01*
X100296428Y-110035714D01*
X100153571Y-109964285D01*
X100082142Y-109821428D01*
X100082142Y-109464285D01*
X100010714Y-109321428D01*
X100653571Y-107464285D02*
X99153571Y-107464285D01*
X99153571Y-106892857D01*
X99225000Y-106750000D01*
X99296428Y-106678571D01*
X99439285Y-106607142D01*
X99653571Y-106607142D01*
X99796428Y-106678571D01*
X99867857Y-106750000D01*
X99939285Y-106892857D01*
X99939285Y-107464285D01*
X99867857Y-105964285D02*
X99867857Y-105464285D01*
X100653571Y-105250000D02*
X100653571Y-105964285D01*
X99153571Y-105964285D01*
X99153571Y-105250000D01*
X100653571Y-103821428D02*
X100653571Y-104678571D01*
X100653571Y-104250000D02*
X99153571Y-104250000D01*
X99367857Y-104392857D01*
X99510714Y-104535714D01*
X99582142Y-104678571D01*
X103132142Y-118285714D02*
X103203571Y-118428571D01*
X103203571Y-118714285D01*
X103132142Y-118857142D01*
X103060714Y-118928571D01*
X102917857Y-119000000D01*
X102489285Y-119000000D01*
X102346428Y-118928571D01*
X102275000Y-118857142D01*
X102203571Y-118714285D01*
X102203571Y-118428571D01*
X102275000Y-118285714D01*
X103203571Y-117428571D02*
X103132142Y-117571428D01*
X102989285Y-117642857D01*
X101703571Y-117642857D01*
X103203571Y-116642857D02*
X103132142Y-116785714D01*
X103060714Y-116857142D01*
X102917857Y-116928571D01*
X102489285Y-116928571D01*
X102346428Y-116857142D01*
X102275000Y-116785714D01*
X102203571Y-116642857D01*
X102203571Y-116428571D01*
X102275000Y-116285714D01*
X102346428Y-116214285D01*
X102489285Y-116142857D01*
X102917857Y-116142857D01*
X103060714Y-116214285D01*
X103132142Y-116285714D01*
X103203571Y-116428571D01*
X103203571Y-116642857D01*
X103132142Y-114857142D02*
X103203571Y-115000000D01*
X103203571Y-115285714D01*
X103132142Y-115428571D01*
X103060714Y-115500000D01*
X102917857Y-115571428D01*
X102489285Y-115571428D01*
X102346428Y-115500000D01*
X102275000Y-115428571D01*
X102203571Y-115285714D01*
X102203571Y-115000000D01*
X102275000Y-114857142D01*
X103203571Y-114214285D02*
X101703571Y-114214285D01*
X102632142Y-114071428D02*
X103203571Y-113642857D01*
X102203571Y-113642857D02*
X102775000Y-114214285D01*
X103203571Y-111857142D02*
X102203571Y-111857142D01*
X101703571Y-111857142D02*
X101775000Y-111928571D01*
X101846428Y-111857142D01*
X101775000Y-111785714D01*
X101703571Y-111857142D01*
X101846428Y-111857142D01*
X102203571Y-111142857D02*
X103203571Y-111142857D01*
X102346428Y-111142857D02*
X102275000Y-111071428D01*
X102203571Y-110928571D01*
X102203571Y-110714285D01*
X102275000Y-110571428D01*
X102417857Y-110500000D01*
X103203571Y-110500000D01*
X102203571Y-109785714D02*
X103489285Y-109785714D01*
X103632142Y-109857142D01*
X103703571Y-110000000D01*
X103703571Y-110071428D01*
X101703571Y-109785714D02*
X101775000Y-109857142D01*
X101846428Y-109785714D01*
X101775000Y-109714285D01*
X101703571Y-109785714D01*
X101846428Y-109785714D01*
X103132142Y-108500000D02*
X103203571Y-108642857D01*
X103203571Y-108928571D01*
X103132142Y-109071428D01*
X102989285Y-109142857D01*
X102417857Y-109142857D01*
X102275000Y-109071428D01*
X102203571Y-108928571D01*
X102203571Y-108642857D01*
X102275000Y-108500000D01*
X102417857Y-108428571D01*
X102560714Y-108428571D01*
X102703571Y-109142857D01*
X103132142Y-107142857D02*
X103203571Y-107285714D01*
X103203571Y-107571428D01*
X103132142Y-107714285D01*
X103060714Y-107785714D01*
X102917857Y-107857142D01*
X102489285Y-107857142D01*
X102346428Y-107785714D01*
X102275000Y-107714285D01*
X102203571Y-107571428D01*
X102203571Y-107285714D01*
X102275000Y-107142857D01*
X102203571Y-106714285D02*
X102203571Y-106142857D01*
X101703571Y-106500000D02*
X102989285Y-106500000D01*
X103132142Y-106428571D01*
X103203571Y-106285714D01*
X103203571Y-106142857D01*
X103203571Y-105428571D02*
X103132142Y-105571428D01*
X103060714Y-105642857D01*
X102917857Y-105714285D01*
X102489285Y-105714285D01*
X102346428Y-105642857D01*
X102275000Y-105571428D01*
X102203571Y-105428571D01*
X102203571Y-105214285D01*
X102275000Y-105071428D01*
X102346428Y-105000000D01*
X102489285Y-104928571D01*
X102917857Y-104928571D01*
X103060714Y-105000000D01*
X103132142Y-105071428D01*
X103203571Y-105214285D01*
X103203571Y-105428571D01*
X103203571Y-104285714D02*
X102203571Y-104285714D01*
X102489285Y-104285714D02*
X102346428Y-104214285D01*
X102275000Y-104142857D01*
X102203571Y-104000000D01*
X102203571Y-103857142D01*
X108303571Y-119107142D02*
X107303571Y-119107142D01*
X107589285Y-119107142D02*
X107446428Y-119035714D01*
X107375000Y-118964285D01*
X107303571Y-118821428D01*
X107303571Y-118678571D01*
X108232142Y-117607142D02*
X108303571Y-117750000D01*
X108303571Y-118035714D01*
X108232142Y-118178571D01*
X108089285Y-118250000D01*
X107517857Y-118250000D01*
X107375000Y-118178571D01*
X107303571Y-118035714D01*
X107303571Y-117750000D01*
X107375000Y-117607142D01*
X107517857Y-117535714D01*
X107660714Y-117535714D01*
X107803571Y-118250000D01*
X107303571Y-117035714D02*
X108303571Y-116678571D01*
X107303571Y-116321428D01*
X106946428Y-114678571D02*
X106875000Y-114607142D01*
X106803571Y-114464285D01*
X106803571Y-114107142D01*
X106875000Y-113964285D01*
X106946428Y-113892857D01*
X107089285Y-113821428D01*
X107232142Y-113821428D01*
X107446428Y-113892857D01*
X108303571Y-114750000D01*
X108303571Y-113821428D01*
X106803571Y-112892857D02*
X106803571Y-112750000D01*
X106875000Y-112607142D01*
X106946428Y-112535714D01*
X107089285Y-112464285D01*
X107375000Y-112392857D01*
X107732142Y-112392857D01*
X108017857Y-112464285D01*
X108160714Y-112535714D01*
X108232142Y-112607142D01*
X108303571Y-112750000D01*
X108303571Y-112892857D01*
X108232142Y-113035714D01*
X108160714Y-113107142D01*
X108017857Y-113178571D01*
X107732142Y-113250000D01*
X107375000Y-113250000D01*
X107089285Y-113178571D01*
X106946428Y-113107142D01*
X106875000Y-113035714D01*
X106803571Y-112892857D01*
X108303571Y-110964285D02*
X108303571Y-111821428D01*
X108303571Y-111392857D02*
X106803571Y-111392857D01*
X107017857Y-111535714D01*
X107160714Y-111678571D01*
X107232142Y-111821428D01*
X108303571Y-110250000D02*
X108303571Y-109964285D01*
X108232142Y-109821428D01*
X108160714Y-109750000D01*
X107946428Y-109607142D01*
X107660714Y-109535714D01*
X107089285Y-109535714D01*
X106946428Y-109607142D01*
X106875000Y-109678571D01*
X106803571Y-109821428D01*
X106803571Y-110107142D01*
X106875000Y-110250000D01*
X106946428Y-110321428D01*
X107089285Y-110392857D01*
X107446428Y-110392857D01*
X107589285Y-110321428D01*
X107660714Y-110250000D01*
X107732142Y-110107142D01*
X107732142Y-109821428D01*
X107660714Y-109678571D01*
X107589285Y-109607142D01*
X107446428Y-109535714D01*
X106803571Y-108607142D02*
X106803571Y-108464285D01*
X106875000Y-108321428D01*
X106946428Y-108250000D01*
X107089285Y-108178571D01*
X107375000Y-108107142D01*
X107732142Y-108107142D01*
X108017857Y-108178571D01*
X108160714Y-108250000D01*
X108232142Y-108321428D01*
X108303571Y-108464285D01*
X108303571Y-108607142D01*
X108232142Y-108750000D01*
X108160714Y-108821428D01*
X108017857Y-108892857D01*
X107732142Y-108964285D01*
X107375000Y-108964285D01*
X107089285Y-108892857D01*
X106946428Y-108821428D01*
X106875000Y-108750000D01*
X106803571Y-108607142D01*
X106803571Y-107607142D02*
X106803571Y-106678571D01*
X107375000Y-107178571D01*
X107375000Y-106964285D01*
X107446428Y-106821428D01*
X107517857Y-106750000D01*
X107660714Y-106678571D01*
X108017857Y-106678571D01*
X108160714Y-106750000D01*
X108232142Y-106821428D01*
X108303571Y-106964285D01*
X108303571Y-107392857D01*
X108232142Y-107535714D01*
X108160714Y-107607142D01*
X106946428Y-106107142D02*
X106875000Y-106035714D01*
X106803571Y-105892857D01*
X106803571Y-105535714D01*
X106875000Y-105392857D01*
X106946428Y-105321428D01*
X107089285Y-105250000D01*
X107232142Y-105250000D01*
X107446428Y-105321428D01*
X108303571Y-106178571D01*
X108303571Y-105250000D01*
X106803571Y-103892857D02*
X106803571Y-104607142D01*
X107517857Y-104678571D01*
X107446428Y-104607142D01*
X107375000Y-104464285D01*
X107375000Y-104107142D01*
X107446428Y-103964285D01*
X107517857Y-103892857D01*
X107660714Y-103821428D01*
X108017857Y-103821428D01*
X108160714Y-103892857D01*
X108232142Y-103964285D01*
X108303571Y-104107142D01*
X108303571Y-104464285D01*
X108232142Y-104607142D01*
X108160714Y-104678571D01*
D12*
X102938095Y-128200000D02*
X102842857Y-128152380D01*
X102700000Y-128152380D01*
X102557142Y-128200000D01*
X102461904Y-128295238D01*
X102414285Y-128390476D01*
X102366666Y-128580952D01*
X102366666Y-128723809D01*
X102414285Y-128914285D01*
X102461904Y-129009523D01*
X102557142Y-129104761D01*
X102700000Y-129152380D01*
X102795238Y-129152380D01*
X102938095Y-129104761D01*
X102985714Y-129057142D01*
X102985714Y-128723809D01*
X102795238Y-128723809D01*
X103414285Y-129152380D02*
X103414285Y-128152380D01*
X103985714Y-129152380D01*
X103985714Y-128152380D01*
X104461904Y-129152380D02*
X104461904Y-128152380D01*
X104700000Y-128152380D01*
X104842857Y-128200000D01*
X104938095Y-128295238D01*
X104985714Y-128390476D01*
X105033333Y-128580952D01*
X105033333Y-128723809D01*
X104985714Y-128914285D01*
X104938095Y-129009523D01*
X104842857Y-129104761D01*
X104700000Y-129152380D01*
X104461904Y-129152380D01*
X103024404Y-124777380D02*
X102452976Y-124777380D01*
X102738690Y-124777380D02*
X102738690Y-123777380D01*
X102643452Y-123920238D01*
X102548214Y-124015476D01*
X102452976Y-124063095D01*
X103643452Y-123777380D02*
X103738690Y-123777380D01*
X103833928Y-123825000D01*
X103881547Y-123872619D01*
X103929166Y-123967857D01*
X103976785Y-124158333D01*
X103976785Y-124396428D01*
X103929166Y-124586904D01*
X103881547Y-124682142D01*
X103833928Y-124729761D01*
X103738690Y-124777380D01*
X103643452Y-124777380D01*
X103548214Y-124729761D01*
X103500595Y-124682142D01*
X103452976Y-124586904D01*
X103405357Y-124396428D01*
X103405357Y-124158333D01*
X103452976Y-123967857D01*
X103500595Y-123872619D01*
X103548214Y-123825000D01*
X103643452Y-123777380D01*
X104595833Y-123777380D02*
X104691071Y-123777380D01*
X104786309Y-123825000D01*
X104833928Y-123872619D01*
X104881547Y-123967857D01*
X104929166Y-124158333D01*
X104929166Y-124396428D01*
X104881547Y-124586904D01*
X104833928Y-124682142D01*
X104786309Y-124729761D01*
X104691071Y-124777380D01*
X104595833Y-124777380D01*
X104500595Y-124729761D01*
X104452976Y-124682142D01*
X104405357Y-124586904D01*
X104357738Y-124396428D01*
X104357738Y-124158333D01*
X104405357Y-123967857D01*
X104452976Y-123872619D01*
X104500595Y-123825000D01*
X104595833Y-123777380D01*
X105357738Y-124777380D02*
X105357738Y-123777380D01*
X105691071Y-124491666D01*
X106024404Y-123777380D01*
X106024404Y-124777380D01*
X106500595Y-124777380D02*
X106500595Y-123777380D01*
X106500595Y-124253571D02*
X107072023Y-124253571D01*
X107072023Y-124777380D02*
X107072023Y-123777380D01*
X107452976Y-124110714D02*
X107976785Y-124110714D01*
X107452976Y-124777380D01*
X107976785Y-124777380D01*
X102643452Y-126527380D02*
X102548214Y-126479761D01*
X102500595Y-126432142D01*
X102452976Y-126336904D01*
X102452976Y-126051190D01*
X102500595Y-125955952D01*
X102548214Y-125908333D01*
X102643452Y-125860714D01*
X102786309Y-125860714D01*
X102881547Y-125908333D01*
X102929166Y-125955952D01*
X102976785Y-126051190D01*
X102976785Y-126336904D01*
X102929166Y-126432142D01*
X102881547Y-126479761D01*
X102786309Y-126527380D01*
X102643452Y-126527380D01*
X103833928Y-125860714D02*
X103833928Y-126527380D01*
X103405357Y-125860714D02*
X103405357Y-126384523D01*
X103452976Y-126479761D01*
X103548214Y-126527380D01*
X103691071Y-126527380D01*
X103786309Y-126479761D01*
X103833928Y-126432142D01*
X104167261Y-125860714D02*
X104548214Y-125860714D01*
X104310119Y-125527380D02*
X104310119Y-126384523D01*
X104357738Y-126479761D01*
X104452976Y-126527380D01*
X104548214Y-126527380D01*
D10*
X108557142Y-124328571D02*
X108557142Y-122828571D01*
X109057142Y-123900000D01*
X109557142Y-122828571D01*
X109557142Y-124328571D01*
X110271428Y-124328571D02*
X110271428Y-123328571D01*
X110271428Y-122828571D02*
X110200000Y-122900000D01*
X110271428Y-122971428D01*
X110342857Y-122900000D01*
X110271428Y-122828571D01*
X110271428Y-122971428D01*
X111628571Y-124257142D02*
X111485714Y-124328571D01*
X111200000Y-124328571D01*
X111057142Y-124257142D01*
X110985714Y-124185714D01*
X110914285Y-124042857D01*
X110914285Y-123614285D01*
X110985714Y-123471428D01*
X111057142Y-123400000D01*
X111200000Y-123328571D01*
X111485714Y-123328571D01*
X111628571Y-123400000D01*
X112271428Y-124328571D02*
X112271428Y-123328571D01*
X112271428Y-123614285D02*
X112342857Y-123471428D01*
X112414285Y-123400000D01*
X112557142Y-123328571D01*
X112700000Y-123328571D01*
X113414285Y-124328571D02*
X113271428Y-124257142D01*
X113200000Y-124185714D01*
X113128571Y-124042857D01*
X113128571Y-123614285D01*
X113200000Y-123471428D01*
X113271428Y-123400000D01*
X113414285Y-123328571D01*
X113628571Y-123328571D01*
X113771428Y-123400000D01*
X113842857Y-123471428D01*
X113914285Y-123614285D01*
X113914285Y-124042857D01*
X113842857Y-124185714D01*
X113771428Y-124257142D01*
X113628571Y-124328571D01*
X113414285Y-124328571D01*
X109307142Y-125378571D02*
X109307142Y-126592857D01*
X109378571Y-126735714D01*
X109450000Y-126807142D01*
X109592857Y-126878571D01*
X109878571Y-126878571D01*
X110021428Y-126807142D01*
X110092857Y-126735714D01*
X110164285Y-126592857D01*
X110164285Y-125378571D01*
X110807142Y-126807142D02*
X111021428Y-126878571D01*
X111378571Y-126878571D01*
X111521428Y-126807142D01*
X111592857Y-126735714D01*
X111664285Y-126592857D01*
X111664285Y-126450000D01*
X111592857Y-126307142D01*
X111521428Y-126235714D01*
X111378571Y-126164285D01*
X111092857Y-126092857D01*
X110950000Y-126021428D01*
X110878571Y-125950000D01*
X110807142Y-125807142D01*
X110807142Y-125664285D01*
X110878571Y-125521428D01*
X110950000Y-125450000D01*
X111092857Y-125378571D01*
X111450000Y-125378571D01*
X111664285Y-125450000D01*
X112807142Y-126092857D02*
X113021428Y-126164285D01*
X113092857Y-126235714D01*
X113164285Y-126378571D01*
X113164285Y-126592857D01*
X113092857Y-126735714D01*
X113021428Y-126807142D01*
X112878571Y-126878571D01*
X112307142Y-126878571D01*
X112307142Y-125378571D01*
X112807142Y-125378571D01*
X112950000Y-125450000D01*
X113021428Y-125521428D01*
X113092857Y-125664285D01*
X113092857Y-125807142D01*
X113021428Y-125950000D01*
X112950000Y-126021428D01*
X112807142Y-126092857D01*
X112307142Y-126092857D01*
X110128571Y-129357142D02*
X109985714Y-129428571D01*
X109700000Y-129428571D01*
X109557142Y-129357142D01*
X109485714Y-129214285D01*
X109485714Y-128642857D01*
X109557142Y-128500000D01*
X109700000Y-128428571D01*
X109985714Y-128428571D01*
X110128571Y-128500000D01*
X110200000Y-128642857D01*
X110200000Y-128785714D01*
X109485714Y-128928571D01*
X110842857Y-128428571D02*
X110842857Y-129428571D01*
X110842857Y-128571428D02*
X110914285Y-128500000D01*
X111057142Y-128428571D01*
X111271428Y-128428571D01*
X111414285Y-128500000D01*
X111485714Y-128642857D01*
X111485714Y-129428571D01*
X112842857Y-129428571D02*
X112842857Y-127928571D01*
X112842857Y-129357142D02*
X112700000Y-129428571D01*
X112414285Y-129428571D01*
X112271428Y-129357142D01*
X112200000Y-129285714D01*
X112128571Y-129142857D01*
X112128571Y-128714285D01*
X112200000Y-128571428D01*
X112271428Y-128500000D01*
X112414285Y-128428571D01*
X112700000Y-128428571D01*
X112842857Y-128500000D01*
X107557142Y-79728571D02*
X107557142Y-78228571D01*
X108128571Y-78228571D01*
X108271428Y-78300000D01*
X108342857Y-78371428D01*
X108414285Y-78514285D01*
X108414285Y-78728571D01*
X108342857Y-78871428D01*
X108271428Y-78942857D01*
X108128571Y-79014285D01*
X107557142Y-79014285D01*
X109914285Y-79585714D02*
X109842857Y-79657142D01*
X109628571Y-79728571D01*
X109485714Y-79728571D01*
X109271428Y-79657142D01*
X109128571Y-79514285D01*
X109057142Y-79371428D01*
X108985714Y-79085714D01*
X108985714Y-78871428D01*
X109057142Y-78585714D01*
X109128571Y-78442857D01*
X109271428Y-78300000D01*
X109485714Y-78228571D01*
X109628571Y-78228571D01*
X109842857Y-78300000D01*
X109914285Y-78371428D01*
X110557142Y-79728571D02*
X110557142Y-78228571D01*
X111842857Y-79657142D02*
X111700000Y-79728571D01*
X111414285Y-79728571D01*
X111271428Y-79657142D01*
X111200000Y-79514285D01*
X111200000Y-78942857D01*
X111271428Y-78800000D01*
X111414285Y-78728571D01*
X111700000Y-78728571D01*
X111842857Y-78800000D01*
X111914285Y-78942857D01*
X111914285Y-79085714D01*
X111200000Y-79228571D01*
X105914285Y-82278571D02*
X105914285Y-80778571D01*
X105914285Y-81350000D02*
X106057142Y-81278571D01*
X106342857Y-81278571D01*
X106485714Y-81350000D01*
X106557142Y-81421428D01*
X106628571Y-81564285D01*
X106628571Y-81992857D01*
X106557142Y-82135714D01*
X106485714Y-82207142D01*
X106342857Y-82278571D01*
X106057142Y-82278571D01*
X105914285Y-82207142D01*
X107271428Y-82278571D02*
X107271428Y-81278571D01*
X107271428Y-81564285D02*
X107342857Y-81421428D01*
X107414285Y-81350000D01*
X107557142Y-81278571D01*
X107700000Y-81278571D01*
X108842857Y-82278571D02*
X108842857Y-81492857D01*
X108771428Y-81350000D01*
X108628571Y-81278571D01*
X108342857Y-81278571D01*
X108200000Y-81350000D01*
X108842857Y-82207142D02*
X108700000Y-82278571D01*
X108342857Y-82278571D01*
X108200000Y-82207142D01*
X108128571Y-82064285D01*
X108128571Y-81921428D01*
X108200000Y-81778571D01*
X108342857Y-81707142D01*
X108700000Y-81707142D01*
X108842857Y-81635714D01*
X110200000Y-82207142D02*
X110057142Y-82278571D01*
X109771428Y-82278571D01*
X109628571Y-82207142D01*
X109557142Y-82135714D01*
X109485714Y-81992857D01*
X109485714Y-81564285D01*
X109557142Y-81421428D01*
X109628571Y-81350000D01*
X109771428Y-81278571D01*
X110057142Y-81278571D01*
X110200000Y-81350000D01*
X110842857Y-82278571D02*
X110842857Y-80778571D01*
X110985714Y-81707142D02*
X111414285Y-82278571D01*
X111414285Y-81278571D02*
X110842857Y-81850000D01*
X112628571Y-82207142D02*
X112485714Y-82278571D01*
X112200000Y-82278571D01*
X112057142Y-82207142D01*
X111985714Y-82064285D01*
X111985714Y-81492857D01*
X112057142Y-81350000D01*
X112200000Y-81278571D01*
X112485714Y-81278571D01*
X112628571Y-81350000D01*
X112700000Y-81492857D01*
X112700000Y-81635714D01*
X111985714Y-81778571D01*
X113128571Y-81278571D02*
X113700000Y-81278571D01*
X113342857Y-80778571D02*
X113342857Y-82064285D01*
X113414285Y-82207142D01*
X113557142Y-82278571D01*
X113700000Y-82278571D01*
X108628571Y-84757142D02*
X108485714Y-84828571D01*
X108200000Y-84828571D01*
X108057142Y-84757142D01*
X107985714Y-84614285D01*
X107985714Y-84042857D01*
X108057142Y-83900000D01*
X108200000Y-83828571D01*
X108485714Y-83828571D01*
X108628571Y-83900000D01*
X108700000Y-84042857D01*
X108700000Y-84185714D01*
X107985714Y-84328571D01*
X109342857Y-83828571D02*
X109342857Y-84828571D01*
X109342857Y-83971428D02*
X109414285Y-83900000D01*
X109557142Y-83828571D01*
X109771428Y-83828571D01*
X109914285Y-83900000D01*
X109985714Y-84042857D01*
X109985714Y-84828571D01*
X111342857Y-84828571D02*
X111342857Y-83328571D01*
X111342857Y-84757142D02*
X111200000Y-84828571D01*
X110914285Y-84828571D01*
X110771428Y-84757142D01*
X110700000Y-84685714D01*
X110628571Y-84542857D01*
X110628571Y-84114285D01*
X110700000Y-83971428D01*
X110771428Y-83900000D01*
X110914285Y-83828571D01*
X111200000Y-83828571D01*
X111342857Y-83900000D01*
X104685714Y-99178571D02*
X105614285Y-99178571D01*
X105114285Y-99750000D01*
X105328571Y-99750000D01*
X105471428Y-99821428D01*
X105542857Y-99892857D01*
X105614285Y-100035714D01*
X105614285Y-100392857D01*
X105542857Y-100535714D01*
X105471428Y-100607142D01*
X105328571Y-100678571D01*
X104900000Y-100678571D01*
X104757142Y-100607142D01*
X104685714Y-100535714D01*
X106257142Y-100535714D02*
X106328571Y-100607142D01*
X106257142Y-100678571D01*
X106185714Y-100607142D01*
X106257142Y-100535714D01*
X106257142Y-100678571D01*
X106828571Y-99178571D02*
X107757142Y-99178571D01*
X107257142Y-99750000D01*
X107471428Y-99750000D01*
X107614285Y-99821428D01*
X107685714Y-99892857D01*
X107757142Y-100035714D01*
X107757142Y-100392857D01*
X107685714Y-100535714D01*
X107614285Y-100607142D01*
X107471428Y-100678571D01*
X107042857Y-100678571D01*
X106900000Y-100607142D01*
X106828571Y-100535714D01*
X108185714Y-99178571D02*
X108685714Y-100678571D01*
X109185714Y-99178571D01*
X105457142Y-96550000D02*
X105314285Y-96478571D01*
X105100000Y-96478571D01*
X104885714Y-96550000D01*
X104742857Y-96692857D01*
X104671428Y-96835714D01*
X104600000Y-97121428D01*
X104600000Y-97335714D01*
X104671428Y-97621428D01*
X104742857Y-97764285D01*
X104885714Y-97907142D01*
X105100000Y-97978571D01*
X105242857Y-97978571D01*
X105457142Y-97907142D01*
X105528571Y-97835714D01*
X105528571Y-97335714D01*
X105242857Y-97335714D01*
X106171428Y-97978571D02*
X106171428Y-96478571D01*
X107028571Y-97978571D01*
X107028571Y-96478571D01*
X107742857Y-97978571D02*
X107742857Y-96478571D01*
X108100000Y-96478571D01*
X108314285Y-96550000D01*
X108457142Y-96692857D01*
X108528571Y-96835714D01*
X108600000Y-97121428D01*
X108600000Y-97335714D01*
X108528571Y-97621428D01*
X108457142Y-97764285D01*
X108314285Y-97907142D01*
X108100000Y-97978571D01*
X107742857Y-97978571D01*
X104778571Y-95507142D02*
X104992857Y-95578571D01*
X105350000Y-95578571D01*
X105492857Y-95507142D01*
X105564285Y-95435714D01*
X105635714Y-95292857D01*
X105635714Y-95150000D01*
X105564285Y-95007142D01*
X105492857Y-94935714D01*
X105350000Y-94864285D01*
X105064285Y-94792857D01*
X104921428Y-94721428D01*
X104850000Y-94650000D01*
X104778571Y-94507142D01*
X104778571Y-94364285D01*
X104850000Y-94221428D01*
X104921428Y-94150000D01*
X105064285Y-94078571D01*
X105421428Y-94078571D01*
X105635714Y-94150000D01*
X106278571Y-95578571D02*
X106278571Y-94078571D01*
X106635714Y-94078571D01*
X106850000Y-94150000D01*
X106992857Y-94292857D01*
X107064285Y-94435714D01*
X107135714Y-94721428D01*
X107135714Y-94935714D01*
X107064285Y-95221428D01*
X106992857Y-95364285D01*
X106850000Y-95507142D01*
X106635714Y-95578571D01*
X106278571Y-95578571D01*
X107707142Y-95150000D02*
X108421428Y-95150000D01*
X107564285Y-95578571D02*
X108064285Y-94078571D01*
X108564285Y-95578571D01*
X104714285Y-92907142D02*
X104928571Y-92978571D01*
X105285714Y-92978571D01*
X105428571Y-92907142D01*
X105500000Y-92835714D01*
X105571428Y-92692857D01*
X105571428Y-92550000D01*
X105500000Y-92407142D01*
X105428571Y-92335714D01*
X105285714Y-92264285D01*
X105000000Y-92192857D01*
X104857142Y-92121428D01*
X104785714Y-92050000D01*
X104714285Y-91907142D01*
X104714285Y-91764285D01*
X104785714Y-91621428D01*
X104857142Y-91550000D01*
X105000000Y-91478571D01*
X105357142Y-91478571D01*
X105571428Y-91550000D01*
X107071428Y-92835714D02*
X107000000Y-92907142D01*
X106785714Y-92978571D01*
X106642857Y-92978571D01*
X106428571Y-92907142D01*
X106285714Y-92764285D01*
X106214285Y-92621428D01*
X106142857Y-92335714D01*
X106142857Y-92121428D01*
X106214285Y-91835714D01*
X106285714Y-91692857D01*
X106428571Y-91550000D01*
X106642857Y-91478571D01*
X106785714Y-91478571D01*
X107000000Y-91550000D01*
X107071428Y-91621428D01*
X108428571Y-92978571D02*
X107714285Y-92978571D01*
X107714285Y-91478571D01*
X104692857Y-89692857D02*
X105192857Y-89692857D01*
X105407142Y-90478571D02*
X104692857Y-90478571D01*
X104692857Y-88978571D01*
X105407142Y-88978571D01*
X106050000Y-90478571D02*
X106050000Y-88978571D01*
X106907142Y-90478571D01*
X106907142Y-88978571D01*
X104842857Y-87978571D02*
X104842857Y-86478571D01*
X105557142Y-87978571D02*
X105557142Y-86478571D01*
X106414285Y-87978571D01*
X106414285Y-86478571D01*
X106914285Y-86478571D02*
X107771428Y-86478571D01*
X107342857Y-87978571D02*
X107342857Y-86478571D01*
X100235714Y-82003571D02*
X100235714Y-80503571D01*
X100878571Y-80646428D02*
X100950000Y-80575000D01*
X101092857Y-80503571D01*
X101450000Y-80503571D01*
X101592857Y-80575000D01*
X101664285Y-80646428D01*
X101735714Y-80789285D01*
X101735714Y-80932142D01*
X101664285Y-81146428D01*
X100807142Y-82003571D01*
X101735714Y-82003571D01*
X103235714Y-81860714D02*
X103164285Y-81932142D01*
X102950000Y-82003571D01*
X102807142Y-82003571D01*
X102592857Y-81932142D01*
X102450000Y-81789285D01*
X102378571Y-81646428D01*
X102307142Y-81360714D01*
X102307142Y-81146428D01*
X102378571Y-80860714D01*
X102450000Y-80717857D01*
X102592857Y-80575000D01*
X102807142Y-80503571D01*
X102950000Y-80503571D01*
X103164285Y-80575000D01*
X103235714Y-80646428D01*
X98914285Y-84553571D02*
X98914285Y-83053571D01*
X99485714Y-83053571D01*
X99628571Y-83125000D01*
X99700000Y-83196428D01*
X99771428Y-83339285D01*
X99771428Y-83553571D01*
X99700000Y-83696428D01*
X99628571Y-83767857D01*
X99485714Y-83839285D01*
X98914285Y-83839285D01*
X100414285Y-84553571D02*
X100414285Y-83053571D01*
X100914285Y-84125000D01*
X101414285Y-83053571D01*
X101414285Y-84553571D01*
X102414285Y-83053571D02*
X102700000Y-83053571D01*
X102842857Y-83125000D01*
X102985714Y-83267857D01*
X103057142Y-83553571D01*
X103057142Y-84053571D01*
X102985714Y-84339285D01*
X102842857Y-84482142D01*
X102700000Y-84553571D01*
X102414285Y-84553571D01*
X102271428Y-84482142D01*
X102128571Y-84339285D01*
X102057142Y-84053571D01*
X102057142Y-83553571D01*
X102128571Y-83267857D01*
X102271428Y-83125000D01*
X102414285Y-83053571D01*
X103700000Y-84553571D02*
X103700000Y-83053571D01*
X104057142Y-83053571D01*
X104271428Y-83125000D01*
X104414285Y-83267857D01*
X104485714Y-83410714D01*
X104557142Y-83696428D01*
X104557142Y-83910714D01*
X104485714Y-84196428D01*
X104414285Y-84339285D01*
X104271428Y-84482142D01*
X104057142Y-84553571D01*
X103700000Y-84553571D01*
D13*
X100570000Y-101230000D02*
X103230000Y-101230000D01*
X100570000Y-88470000D02*
X100570000Y-101230000D01*
X103230000Y-88470000D02*
X103230000Y-101230000D01*
X100570000Y-88470000D02*
X103230000Y-88470000D01*
X100570000Y-87200000D02*
X100570000Y-85870000D01*
X100570000Y-85870000D02*
X101900000Y-85870000D01*
X98870000Y-129470000D02*
X101530000Y-129470000D01*
X98870000Y-126870000D02*
X98870000Y-129470000D01*
X101530000Y-126870000D02*
X101530000Y-129470000D01*
X98870000Y-126870000D02*
X101530000Y-126870000D01*
X98870000Y-125600000D02*
X98870000Y-124270000D01*
X98870000Y-124270000D02*
X100200000Y-124270000D01*
D11*
X101566666Y-84322380D02*
X101566666Y-85036666D01*
X101519047Y-85179523D01*
X101423809Y-85274761D01*
X101280952Y-85322380D01*
X101185714Y-85322380D01*
X101995238Y-84417619D02*
X102042857Y-84370000D01*
X102138095Y-84322380D01*
X102376190Y-84322380D01*
X102471428Y-84370000D01*
X102519047Y-84417619D01*
X102566666Y-84512857D01*
X102566666Y-84608095D01*
X102519047Y-84750952D01*
X101947619Y-85322380D01*
X102566666Y-85322380D01*
M02*
