M48
;DRILL file {KiCad 5.0.2-bee76a0~70~ubuntu18.04.1} date Tue 26 Mar 2019 11:43:20 GMT
;FORMAT={-:-/ absolute / inch / decimal}
FMAT,2
INCH,TZ
T1C0.0157
T2C0.0394
%
G90
G05
T1
X3.8543Y-4.8937
X3.9488Y-4.1063
X3.9891Y-4.2053
X4.0039Y-4.3071
X4.0157Y-3.1339
X4.0591Y-4.6811
X4.095Y-3.8331
X4.0984Y-3.5394
X4.0984Y-4.2835
X4.126Y-3.6378
X4.1373Y-4.6501
X4.1496Y-4.7323
X4.2165Y-4.8858
X4.2874Y-4.9803
X4.315Y-3.7008
X4.3386Y-3.3071
X4.3386Y-3.8268
X4.3386Y-4.2402
X4.3386Y-4.6811
X4.3425Y-4.1654
X4.378Y-4.9921
X4.4134Y-4.8819
T2
X3.9449Y-4.9449
X3.9449Y-5.0449
X4.0118Y-3.4331
X4.0118Y-3.5331
X4.0118Y-3.6331
X4.0118Y-3.7331
X4.0118Y-3.8331
X4.0118Y-3.9331
T0
M30
