%TF.GenerationSoftware,KiCad,Pcbnew,5.0.2-bee76a0~70~ubuntu18.04.1*%
%TF.CreationDate,2019-03-26T11:43:16+00:00*%
%TF.ProjectId,enclustra_clockpcb,656e636c-7573-4747-9261-5f636c6f636b,rev?*%
%TF.SameCoordinates,Original*%
%TF.FileFunction,Copper,L1,Top*%
%TF.FilePolarity,Positive*%
%FSLAX46Y46*%
G04 Gerber Fmt 4.6, Leading zero omitted, Abs format (unit mm)*
G04 Created by KiCad (PCBNEW 5.0.2-bee76a0~70~ubuntu18.04.1) date Tue 26 Mar 2019 11:43:16 GMT*
%MOMM*%
%LPD*%
G01*
G04 APERTURE LIST*
%ADD10R,1.700000X1.700000*%
%ADD11O,1.700000X1.700000*%
%ADD12C,0.800000*%
%ADD13C,1.000000*%
%ADD14C,0.250000*%
%ADD15C,0.500000*%
%ADD16C,0.254000*%
G04 APERTURE END LIST*
D10*
X101900000Y-87200000D03*
D11*
X101900000Y-89740000D03*
X101900000Y-92280000D03*
X101900000Y-94820000D03*
X101900000Y-97360000D03*
X101900000Y-99900000D03*
D10*
X100200000Y-125600000D03*
D11*
X100200000Y-128140000D03*
D12*
X105400000Y-120200000D03*
X103100000Y-118900000D03*
X110200000Y-118900000D03*
X110200000Y-107700000D03*
X109600000Y-94000000D03*
X104100000Y-108800000D03*
X110200000Y-84000000D03*
X102000000Y-79600000D03*
X104013834Y-97360000D03*
X104100000Y-89900000D03*
X110200000Y-97200000D03*
X110300000Y-105800000D03*
X97900000Y-124300000D03*
X105087347Y-118112653D03*
X101323107Y-106813771D03*
X107100000Y-124100000D03*
X101700000Y-109400000D03*
X112100000Y-124000000D03*
X108900000Y-126500000D03*
X111200000Y-126800000D03*
X104800000Y-92400000D03*
X100299998Y-104300000D03*
D13*
X105400000Y-120200000D02*
X104400000Y-120200000D01*
X104400000Y-120200000D02*
X103100000Y-118900000D01*
X110200000Y-118900000D02*
X110200000Y-107700000D01*
X109600000Y-94565685D02*
X109600000Y-94000000D01*
X108900000Y-95265685D02*
X109600000Y-94565685D01*
X110200000Y-107700000D02*
X108900000Y-106400000D01*
X108900000Y-106400000D02*
X108900000Y-95265685D01*
X110200000Y-97200000D02*
X110200000Y-105700000D01*
X110200000Y-105700000D02*
X110300000Y-105800000D01*
D14*
X100974999Y-107161879D02*
X101323107Y-106813771D01*
X105087347Y-118112653D02*
X100974999Y-114000305D01*
X100974999Y-114000305D02*
X100974999Y-107161879D01*
X107100000Y-124100000D02*
X107100000Y-119100000D01*
X107100000Y-119100000D02*
X101700000Y-113700000D01*
X101700000Y-113700000D02*
X101700000Y-109400000D01*
X101900000Y-94820000D02*
X102749999Y-93970001D01*
X102749999Y-93970001D02*
X102749999Y-93376999D01*
X102749999Y-93376999D02*
X104451999Y-91674999D01*
X104451999Y-91674999D02*
X108441739Y-91674999D01*
X112100000Y-123434315D02*
X112100000Y-124000000D01*
X108441739Y-91674999D02*
X112100000Y-95333260D01*
X112100000Y-95333260D02*
X112100000Y-123434315D01*
X111648001Y-127525001D02*
X113300000Y-125873002D01*
X104603150Y-87200000D02*
X101900000Y-87200000D01*
X108900000Y-126500000D02*
X108900001Y-125573003D01*
X110851999Y-127525001D02*
X111648001Y-127525001D01*
X113300000Y-95896850D02*
X104603150Y-87200000D01*
X108900001Y-125573003D02*
X110851999Y-127525001D01*
X113300000Y-125873002D02*
X113300000Y-95896850D01*
X109350010Y-108016750D02*
X107900000Y-106566740D01*
X111200000Y-126800000D02*
X109350010Y-124950010D01*
X109350010Y-124950010D02*
X109350010Y-108016750D01*
X107900000Y-106566740D02*
X107900000Y-95500000D01*
X107900000Y-95500000D02*
X104800000Y-92400000D01*
D15*
X101900000Y-89740000D02*
X100299998Y-91340002D01*
X100299998Y-103734315D02*
X100299998Y-104300000D01*
X100299998Y-91340002D02*
X100299998Y-103734315D01*
D16*
G36*
X114565000Y-129265000D02*
X101145318Y-129265000D01*
X101471645Y-128906924D01*
X101641476Y-128496890D01*
X101520155Y-128267000D01*
X100327000Y-128267000D01*
X100327000Y-128287000D01*
X100073000Y-128287000D01*
X100073000Y-128267000D01*
X98879845Y-128267000D01*
X98758524Y-128496890D01*
X98928355Y-128906924D01*
X99254682Y-129265000D01*
X97635000Y-129265000D01*
X97635000Y-125310509D01*
X97694126Y-125335000D01*
X98105874Y-125335000D01*
X98486280Y-125177431D01*
X98702560Y-124961151D01*
X98702560Y-126450000D01*
X98751843Y-126697765D01*
X98892191Y-126907809D01*
X99102235Y-127048157D01*
X99205708Y-127068739D01*
X98928355Y-127373076D01*
X98758524Y-127783110D01*
X98879845Y-128013000D01*
X100073000Y-128013000D01*
X100073000Y-127993000D01*
X100327000Y-127993000D01*
X100327000Y-128013000D01*
X101520155Y-128013000D01*
X101641476Y-127783110D01*
X101471645Y-127373076D01*
X101194292Y-127068739D01*
X101297765Y-127048157D01*
X101507809Y-126907809D01*
X101648157Y-126697765D01*
X101697440Y-126450000D01*
X101697440Y-124750000D01*
X101648157Y-124502235D01*
X101507809Y-124292191D01*
X101297765Y-124151843D01*
X101050000Y-124102560D01*
X99350000Y-124102560D01*
X99102235Y-124151843D01*
X98935000Y-124263587D01*
X98935000Y-124094126D01*
X98777431Y-123713720D01*
X98486280Y-123422569D01*
X98105874Y-123265000D01*
X97694126Y-123265000D01*
X97635000Y-123289491D01*
X97635000Y-107161879D01*
X100200111Y-107161879D01*
X100215000Y-107236731D01*
X100214999Y-113925458D01*
X100200111Y-114000305D01*
X100214999Y-114075152D01*
X100214999Y-114075156D01*
X100259095Y-114296841D01*
X100427070Y-114548234D01*
X100490529Y-114590636D01*
X104052347Y-118152456D01*
X104052347Y-118318527D01*
X104209916Y-118698933D01*
X104501067Y-118990084D01*
X104881473Y-119147653D01*
X105293221Y-119147653D01*
X105673627Y-118990084D01*
X105794455Y-118869256D01*
X106340001Y-119414803D01*
X106340000Y-123396289D01*
X106222569Y-123513720D01*
X106065000Y-123894126D01*
X106065000Y-124305874D01*
X106222569Y-124686280D01*
X106513720Y-124977431D01*
X106894126Y-125135000D01*
X107305874Y-125135000D01*
X107686280Y-124977431D01*
X107977431Y-124686280D01*
X108135000Y-124305874D01*
X108135000Y-123894126D01*
X107977431Y-123513720D01*
X107860000Y-123396289D01*
X107860000Y-119174846D01*
X107874888Y-119099999D01*
X107860000Y-119025152D01*
X107860000Y-119025148D01*
X107815904Y-118803463D01*
X107647929Y-118552071D01*
X107584473Y-118509671D01*
X102460000Y-113385199D01*
X102460000Y-110103711D01*
X102577431Y-109986280D01*
X102735000Y-109605874D01*
X102735000Y-109194126D01*
X102577431Y-108813720D01*
X102286280Y-108522569D01*
X101905874Y-108365000D01*
X101734999Y-108365000D01*
X101734999Y-107763436D01*
X101909387Y-107691202D01*
X102200538Y-107400051D01*
X102358107Y-107019645D01*
X102358107Y-106607897D01*
X102200538Y-106227491D01*
X101909387Y-105936340D01*
X101528981Y-105778771D01*
X101117233Y-105778771D01*
X100736827Y-105936340D01*
X100445676Y-106227491D01*
X100288107Y-106607897D01*
X100288107Y-106821924D01*
X100259096Y-106865342D01*
X100200111Y-107161879D01*
X97635000Y-107161879D01*
X97635000Y-104094126D01*
X99264998Y-104094126D01*
X99264998Y-104505874D01*
X99422567Y-104886280D01*
X99713718Y-105177431D01*
X100094124Y-105335000D01*
X100505872Y-105335000D01*
X100886278Y-105177431D01*
X101177429Y-104886280D01*
X101334998Y-104505874D01*
X101334998Y-104094126D01*
X101184998Y-103731993D01*
X101184998Y-101208245D01*
X101320582Y-101298839D01*
X101753744Y-101385000D01*
X102046256Y-101385000D01*
X102479418Y-101298839D01*
X102970625Y-100970625D01*
X103298839Y-100479418D01*
X103414092Y-99900000D01*
X103298839Y-99320582D01*
X102970625Y-98829375D01*
X102651522Y-98616157D01*
X102781358Y-98555183D01*
X103171645Y-98126924D01*
X103341476Y-97716890D01*
X103220155Y-97487000D01*
X102027000Y-97487000D01*
X102027000Y-97507000D01*
X101773000Y-97507000D01*
X101773000Y-97487000D01*
X101753000Y-97487000D01*
X101753000Y-97233000D01*
X101773000Y-97233000D01*
X101773000Y-97213000D01*
X102027000Y-97213000D01*
X102027000Y-97233000D01*
X103220155Y-97233000D01*
X103341476Y-97003110D01*
X103171645Y-96593076D01*
X102781358Y-96164817D01*
X102651522Y-96103843D01*
X102970625Y-95890625D01*
X103298839Y-95399418D01*
X103414092Y-94820000D01*
X103341142Y-94453255D01*
X103465903Y-94266538D01*
X103509999Y-94044853D01*
X103509999Y-94044849D01*
X103524887Y-93970002D01*
X103509999Y-93895155D01*
X103509999Y-93691800D01*
X104069044Y-93132755D01*
X104213720Y-93277431D01*
X104594126Y-93435000D01*
X104760199Y-93435000D01*
X107140001Y-95814803D01*
X107140000Y-106491893D01*
X107125112Y-106566740D01*
X107140000Y-106641587D01*
X107140000Y-106641591D01*
X107184096Y-106863276D01*
X107352071Y-107114669D01*
X107415530Y-107157071D01*
X108590011Y-108331553D01*
X108590010Y-124866089D01*
X108573036Y-124877431D01*
X108352072Y-125025074D01*
X108184098Y-125276466D01*
X108125113Y-125573003D01*
X108140002Y-125647854D01*
X108140001Y-125796288D01*
X108022569Y-125913720D01*
X107865000Y-126294126D01*
X107865000Y-126705874D01*
X108022569Y-127086280D01*
X108313720Y-127377431D01*
X108694126Y-127535000D01*
X109105874Y-127535000D01*
X109486280Y-127377431D01*
X109557954Y-127305757D01*
X110261670Y-128009474D01*
X110304070Y-128072930D01*
X110555462Y-128240905D01*
X110777147Y-128285001D01*
X110777151Y-128285001D01*
X110851998Y-128299889D01*
X110926845Y-128285001D01*
X111573154Y-128285001D01*
X111648001Y-128299889D01*
X111722848Y-128285001D01*
X111722853Y-128285001D01*
X111944538Y-128240905D01*
X112195930Y-128072930D01*
X112238332Y-128009471D01*
X113784476Y-126463329D01*
X113847929Y-126420931D01*
X113890327Y-126357478D01*
X113890329Y-126357476D01*
X114015903Y-126169540D01*
X114015904Y-126169539D01*
X114060000Y-125947854D01*
X114060000Y-125947850D01*
X114074888Y-125873003D01*
X114060000Y-125798156D01*
X114060000Y-95971696D01*
X114074888Y-95896849D01*
X114060000Y-95822002D01*
X114060000Y-95821998D01*
X114015904Y-95600313D01*
X113847929Y-95348921D01*
X113784473Y-95306521D01*
X105193481Y-86715530D01*
X105151079Y-86652071D01*
X104899687Y-86484096D01*
X104678002Y-86440000D01*
X104677997Y-86440000D01*
X104603150Y-86425112D01*
X104528303Y-86440000D01*
X103397440Y-86440000D01*
X103397440Y-86350000D01*
X103348157Y-86102235D01*
X103207809Y-85892191D01*
X102997765Y-85751843D01*
X102750000Y-85702560D01*
X101050000Y-85702560D01*
X100802235Y-85751843D01*
X100592191Y-85892191D01*
X100451843Y-86102235D01*
X100402560Y-86350000D01*
X100402560Y-88050000D01*
X100451843Y-88297765D01*
X100592191Y-88507809D01*
X100802235Y-88648157D01*
X100847619Y-88657184D01*
X100829375Y-88669375D01*
X100501161Y-89160582D01*
X100385908Y-89740000D01*
X100429462Y-89958960D01*
X99735845Y-90652577D01*
X99661949Y-90701953D01*
X99466346Y-90994693D01*
X99414998Y-91252838D01*
X99414998Y-91252841D01*
X99397661Y-91340002D01*
X99414998Y-91427163D01*
X99414999Y-103647146D01*
X99414998Y-103647151D01*
X99414998Y-103731993D01*
X99264998Y-104094126D01*
X97635000Y-104094126D01*
X97635000Y-77735000D01*
X114565001Y-77735000D01*
X114565000Y-129265000D01*
X114565000Y-129265000D01*
G37*
X114565000Y-129265000D02*
X101145318Y-129265000D01*
X101471645Y-128906924D01*
X101641476Y-128496890D01*
X101520155Y-128267000D01*
X100327000Y-128267000D01*
X100327000Y-128287000D01*
X100073000Y-128287000D01*
X100073000Y-128267000D01*
X98879845Y-128267000D01*
X98758524Y-128496890D01*
X98928355Y-128906924D01*
X99254682Y-129265000D01*
X97635000Y-129265000D01*
X97635000Y-125310509D01*
X97694126Y-125335000D01*
X98105874Y-125335000D01*
X98486280Y-125177431D01*
X98702560Y-124961151D01*
X98702560Y-126450000D01*
X98751843Y-126697765D01*
X98892191Y-126907809D01*
X99102235Y-127048157D01*
X99205708Y-127068739D01*
X98928355Y-127373076D01*
X98758524Y-127783110D01*
X98879845Y-128013000D01*
X100073000Y-128013000D01*
X100073000Y-127993000D01*
X100327000Y-127993000D01*
X100327000Y-128013000D01*
X101520155Y-128013000D01*
X101641476Y-127783110D01*
X101471645Y-127373076D01*
X101194292Y-127068739D01*
X101297765Y-127048157D01*
X101507809Y-126907809D01*
X101648157Y-126697765D01*
X101697440Y-126450000D01*
X101697440Y-124750000D01*
X101648157Y-124502235D01*
X101507809Y-124292191D01*
X101297765Y-124151843D01*
X101050000Y-124102560D01*
X99350000Y-124102560D01*
X99102235Y-124151843D01*
X98935000Y-124263587D01*
X98935000Y-124094126D01*
X98777431Y-123713720D01*
X98486280Y-123422569D01*
X98105874Y-123265000D01*
X97694126Y-123265000D01*
X97635000Y-123289491D01*
X97635000Y-107161879D01*
X100200111Y-107161879D01*
X100215000Y-107236731D01*
X100214999Y-113925458D01*
X100200111Y-114000305D01*
X100214999Y-114075152D01*
X100214999Y-114075156D01*
X100259095Y-114296841D01*
X100427070Y-114548234D01*
X100490529Y-114590636D01*
X104052347Y-118152456D01*
X104052347Y-118318527D01*
X104209916Y-118698933D01*
X104501067Y-118990084D01*
X104881473Y-119147653D01*
X105293221Y-119147653D01*
X105673627Y-118990084D01*
X105794455Y-118869256D01*
X106340001Y-119414803D01*
X106340000Y-123396289D01*
X106222569Y-123513720D01*
X106065000Y-123894126D01*
X106065000Y-124305874D01*
X106222569Y-124686280D01*
X106513720Y-124977431D01*
X106894126Y-125135000D01*
X107305874Y-125135000D01*
X107686280Y-124977431D01*
X107977431Y-124686280D01*
X108135000Y-124305874D01*
X108135000Y-123894126D01*
X107977431Y-123513720D01*
X107860000Y-123396289D01*
X107860000Y-119174846D01*
X107874888Y-119099999D01*
X107860000Y-119025152D01*
X107860000Y-119025148D01*
X107815904Y-118803463D01*
X107647929Y-118552071D01*
X107584473Y-118509671D01*
X102460000Y-113385199D01*
X102460000Y-110103711D01*
X102577431Y-109986280D01*
X102735000Y-109605874D01*
X102735000Y-109194126D01*
X102577431Y-108813720D01*
X102286280Y-108522569D01*
X101905874Y-108365000D01*
X101734999Y-108365000D01*
X101734999Y-107763436D01*
X101909387Y-107691202D01*
X102200538Y-107400051D01*
X102358107Y-107019645D01*
X102358107Y-106607897D01*
X102200538Y-106227491D01*
X101909387Y-105936340D01*
X101528981Y-105778771D01*
X101117233Y-105778771D01*
X100736827Y-105936340D01*
X100445676Y-106227491D01*
X100288107Y-106607897D01*
X100288107Y-106821924D01*
X100259096Y-106865342D01*
X100200111Y-107161879D01*
X97635000Y-107161879D01*
X97635000Y-104094126D01*
X99264998Y-104094126D01*
X99264998Y-104505874D01*
X99422567Y-104886280D01*
X99713718Y-105177431D01*
X100094124Y-105335000D01*
X100505872Y-105335000D01*
X100886278Y-105177431D01*
X101177429Y-104886280D01*
X101334998Y-104505874D01*
X101334998Y-104094126D01*
X101184998Y-103731993D01*
X101184998Y-101208245D01*
X101320582Y-101298839D01*
X101753744Y-101385000D01*
X102046256Y-101385000D01*
X102479418Y-101298839D01*
X102970625Y-100970625D01*
X103298839Y-100479418D01*
X103414092Y-99900000D01*
X103298839Y-99320582D01*
X102970625Y-98829375D01*
X102651522Y-98616157D01*
X102781358Y-98555183D01*
X103171645Y-98126924D01*
X103341476Y-97716890D01*
X103220155Y-97487000D01*
X102027000Y-97487000D01*
X102027000Y-97507000D01*
X101773000Y-97507000D01*
X101773000Y-97487000D01*
X101753000Y-97487000D01*
X101753000Y-97233000D01*
X101773000Y-97233000D01*
X101773000Y-97213000D01*
X102027000Y-97213000D01*
X102027000Y-97233000D01*
X103220155Y-97233000D01*
X103341476Y-97003110D01*
X103171645Y-96593076D01*
X102781358Y-96164817D01*
X102651522Y-96103843D01*
X102970625Y-95890625D01*
X103298839Y-95399418D01*
X103414092Y-94820000D01*
X103341142Y-94453255D01*
X103465903Y-94266538D01*
X103509999Y-94044853D01*
X103509999Y-94044849D01*
X103524887Y-93970002D01*
X103509999Y-93895155D01*
X103509999Y-93691800D01*
X104069044Y-93132755D01*
X104213720Y-93277431D01*
X104594126Y-93435000D01*
X104760199Y-93435000D01*
X107140001Y-95814803D01*
X107140000Y-106491893D01*
X107125112Y-106566740D01*
X107140000Y-106641587D01*
X107140000Y-106641591D01*
X107184096Y-106863276D01*
X107352071Y-107114669D01*
X107415530Y-107157071D01*
X108590011Y-108331553D01*
X108590010Y-124866089D01*
X108573036Y-124877431D01*
X108352072Y-125025074D01*
X108184098Y-125276466D01*
X108125113Y-125573003D01*
X108140002Y-125647854D01*
X108140001Y-125796288D01*
X108022569Y-125913720D01*
X107865000Y-126294126D01*
X107865000Y-126705874D01*
X108022569Y-127086280D01*
X108313720Y-127377431D01*
X108694126Y-127535000D01*
X109105874Y-127535000D01*
X109486280Y-127377431D01*
X109557954Y-127305757D01*
X110261670Y-128009474D01*
X110304070Y-128072930D01*
X110555462Y-128240905D01*
X110777147Y-128285001D01*
X110777151Y-128285001D01*
X110851998Y-128299889D01*
X110926845Y-128285001D01*
X111573154Y-128285001D01*
X111648001Y-128299889D01*
X111722848Y-128285001D01*
X111722853Y-128285001D01*
X111944538Y-128240905D01*
X112195930Y-128072930D01*
X112238332Y-128009471D01*
X113784476Y-126463329D01*
X113847929Y-126420931D01*
X113890327Y-126357478D01*
X113890329Y-126357476D01*
X114015903Y-126169540D01*
X114015904Y-126169539D01*
X114060000Y-125947854D01*
X114060000Y-125947850D01*
X114074888Y-125873003D01*
X114060000Y-125798156D01*
X114060000Y-95971696D01*
X114074888Y-95896849D01*
X114060000Y-95822002D01*
X114060000Y-95821998D01*
X114015904Y-95600313D01*
X113847929Y-95348921D01*
X113784473Y-95306521D01*
X105193481Y-86715530D01*
X105151079Y-86652071D01*
X104899687Y-86484096D01*
X104678002Y-86440000D01*
X104677997Y-86440000D01*
X104603150Y-86425112D01*
X104528303Y-86440000D01*
X103397440Y-86440000D01*
X103397440Y-86350000D01*
X103348157Y-86102235D01*
X103207809Y-85892191D01*
X102997765Y-85751843D01*
X102750000Y-85702560D01*
X101050000Y-85702560D01*
X100802235Y-85751843D01*
X100592191Y-85892191D01*
X100451843Y-86102235D01*
X100402560Y-86350000D01*
X100402560Y-88050000D01*
X100451843Y-88297765D01*
X100592191Y-88507809D01*
X100802235Y-88648157D01*
X100847619Y-88657184D01*
X100829375Y-88669375D01*
X100501161Y-89160582D01*
X100385908Y-89740000D01*
X100429462Y-89958960D01*
X99735845Y-90652577D01*
X99661949Y-90701953D01*
X99466346Y-90994693D01*
X99414998Y-91252838D01*
X99414998Y-91252841D01*
X99397661Y-91340002D01*
X99414998Y-91427163D01*
X99414999Y-103647146D01*
X99414998Y-103647151D01*
X99414998Y-103731993D01*
X99264998Y-104094126D01*
X97635000Y-104094126D01*
X97635000Y-77735000D01*
X114565001Y-77735000D01*
X114565000Y-129265000D01*
G36*
X111340000Y-95648063D02*
X111340000Y-105313528D01*
X111335000Y-105306044D01*
X111335000Y-97088217D01*
X111269146Y-96757145D01*
X111018289Y-96381711D01*
X110642854Y-96130854D01*
X110200000Y-96042765D01*
X109757145Y-96130854D01*
X109381711Y-96381711D01*
X109130854Y-96757146D01*
X109065000Y-97088218D01*
X109065001Y-105588212D01*
X109042765Y-105700000D01*
X109130854Y-106142854D01*
X109187407Y-106227491D01*
X109381712Y-106518289D01*
X109476480Y-106581611D01*
X109576477Y-106681608D01*
X109857146Y-106869145D01*
X110299999Y-106957235D01*
X110742854Y-106869145D01*
X111118288Y-106618288D01*
X111340000Y-106286472D01*
X111340001Y-123296288D01*
X111222569Y-123413720D01*
X111065000Y-123794126D01*
X111065000Y-124205874D01*
X111222569Y-124586280D01*
X111513720Y-124877431D01*
X111894126Y-125035000D01*
X112305874Y-125035000D01*
X112540000Y-124938022D01*
X112540000Y-125558199D01*
X111980955Y-126117244D01*
X111786280Y-125922569D01*
X111405874Y-125765000D01*
X111239802Y-125765000D01*
X110110010Y-124635209D01*
X110110010Y-108091598D01*
X110124898Y-108016750D01*
X110110010Y-107941902D01*
X110110010Y-107941898D01*
X110065914Y-107720213D01*
X110065914Y-107720212D01*
X109940339Y-107532277D01*
X109897939Y-107468821D01*
X109834483Y-107426421D01*
X108660000Y-106251939D01*
X108660000Y-95574846D01*
X108674888Y-95499999D01*
X108660000Y-95425152D01*
X108660000Y-95425148D01*
X108615904Y-95203463D01*
X108447929Y-94952071D01*
X108384473Y-94909671D01*
X105909800Y-92434999D01*
X108126938Y-92434999D01*
X111340000Y-95648063D01*
X111340000Y-95648063D01*
G37*
X111340000Y-95648063D02*
X111340000Y-105313528D01*
X111335000Y-105306044D01*
X111335000Y-97088217D01*
X111269146Y-96757145D01*
X111018289Y-96381711D01*
X110642854Y-96130854D01*
X110200000Y-96042765D01*
X109757145Y-96130854D01*
X109381711Y-96381711D01*
X109130854Y-96757146D01*
X109065000Y-97088218D01*
X109065001Y-105588212D01*
X109042765Y-105700000D01*
X109130854Y-106142854D01*
X109187407Y-106227491D01*
X109381712Y-106518289D01*
X109476480Y-106581611D01*
X109576477Y-106681608D01*
X109857146Y-106869145D01*
X110299999Y-106957235D01*
X110742854Y-106869145D01*
X111118288Y-106618288D01*
X111340000Y-106286472D01*
X111340001Y-123296288D01*
X111222569Y-123413720D01*
X111065000Y-123794126D01*
X111065000Y-124205874D01*
X111222569Y-124586280D01*
X111513720Y-124877431D01*
X111894126Y-125035000D01*
X112305874Y-125035000D01*
X112540000Y-124938022D01*
X112540000Y-125558199D01*
X111980955Y-126117244D01*
X111786280Y-125922569D01*
X111405874Y-125765000D01*
X111239802Y-125765000D01*
X110110010Y-124635209D01*
X110110010Y-108091598D01*
X110124898Y-108016750D01*
X110110010Y-107941902D01*
X110110010Y-107941898D01*
X110065914Y-107720213D01*
X110065914Y-107720212D01*
X109940339Y-107532277D01*
X109897939Y-107468821D01*
X109834483Y-107426421D01*
X108660000Y-106251939D01*
X108660000Y-95574846D01*
X108674888Y-95499999D01*
X108660000Y-95425152D01*
X108660000Y-95425148D01*
X108615904Y-95203463D01*
X108447929Y-94952071D01*
X108384473Y-94909671D01*
X105909800Y-92434999D01*
X108126938Y-92434999D01*
X111340000Y-95648063D01*
G36*
X107243348Y-90914999D02*
X104526845Y-90914999D01*
X104451998Y-90900111D01*
X104377151Y-90914999D01*
X104377147Y-90914999D01*
X104155462Y-90959095D01*
X104155460Y-90959096D01*
X104155461Y-90959096D01*
X103967525Y-91084670D01*
X103967523Y-91084672D01*
X103904070Y-91127070D01*
X103861672Y-91190523D01*
X103307595Y-91744601D01*
X103298839Y-91700582D01*
X102970625Y-91209375D01*
X102672239Y-91010000D01*
X102970625Y-90810625D01*
X103298839Y-90319418D01*
X103414092Y-89740000D01*
X103298839Y-89160582D01*
X102970625Y-88669375D01*
X102952381Y-88657184D01*
X102997765Y-88648157D01*
X103207809Y-88507809D01*
X103348157Y-88297765D01*
X103397440Y-88050000D01*
X103397440Y-87960000D01*
X104288349Y-87960000D01*
X107243348Y-90914999D01*
X107243348Y-90914999D01*
G37*
X107243348Y-90914999D02*
X104526845Y-90914999D01*
X104451998Y-90900111D01*
X104377151Y-90914999D01*
X104377147Y-90914999D01*
X104155462Y-90959095D01*
X104155460Y-90959096D01*
X104155461Y-90959096D01*
X103967525Y-91084670D01*
X103967523Y-91084672D01*
X103904070Y-91127070D01*
X103861672Y-91190523D01*
X103307595Y-91744601D01*
X103298839Y-91700582D01*
X102970625Y-91209375D01*
X102672239Y-91010000D01*
X102970625Y-90810625D01*
X103298839Y-90319418D01*
X103414092Y-89740000D01*
X103298839Y-89160582D01*
X102970625Y-88669375D01*
X102952381Y-88657184D01*
X102997765Y-88648157D01*
X103207809Y-88507809D01*
X103348157Y-88297765D01*
X103397440Y-88050000D01*
X103397440Y-87960000D01*
X104288349Y-87960000D01*
X107243348Y-90914999D01*
M02*
