%TF.GenerationSoftware,KiCad,Pcbnew,5.0.2-bee76a0~70~ubuntu18.04.1*%
%TF.CreationDate,2019-03-26T11:43:16+00:00*%
%TF.ProjectId,enclustra_clockpcb,656e636c-7573-4747-9261-5f636c6f636b,rev?*%
%TF.SameCoordinates,Original*%
%TF.FileFunction,Soldermask,Bot*%
%TF.FilePolarity,Negative*%
%FSLAX46Y46*%
G04 Gerber Fmt 4.6, Leading zero omitted, Abs format (unit mm)*
G04 Created by KiCad (PCBNEW 5.0.2-bee76a0~70~ubuntu18.04.1) date Tue 26 Mar 2019 11:43:16 GMT*
%MOMM*%
%LPD*%
G01*
G04 APERTURE LIST*
%ADD10C,0.100000*%
G04 APERTURE END LIST*
D10*
G36*
X103947765Y-126654403D02*
X104070445Y-126678805D01*
X104301571Y-126774541D01*
X104509581Y-126913529D01*
X104686471Y-127090419D01*
X104686473Y-127090422D01*
X104825459Y-127298429D01*
X104921195Y-127529555D01*
X104970000Y-127774916D01*
X104970000Y-128025084D01*
X104921195Y-128270445D01*
X104892453Y-128339833D01*
X104825459Y-128501571D01*
X104686471Y-128709581D01*
X104509581Y-128886471D01*
X104509578Y-128886473D01*
X104301571Y-129025459D01*
X104070445Y-129121195D01*
X103947765Y-129145597D01*
X103825086Y-129170000D01*
X103574914Y-129170000D01*
X103452235Y-129145597D01*
X103329555Y-129121195D01*
X103098429Y-129025459D01*
X102890422Y-128886473D01*
X102890419Y-128886471D01*
X102713529Y-128709581D01*
X102574541Y-128501571D01*
X102507547Y-128339833D01*
X102478805Y-128270445D01*
X102430000Y-128025084D01*
X102430000Y-127774916D01*
X102478805Y-127529555D01*
X102574541Y-127298429D01*
X102713527Y-127090422D01*
X102713529Y-127090419D01*
X102890419Y-126913529D01*
X103098429Y-126774541D01*
X103329555Y-126678805D01*
X103452235Y-126654403D01*
X103574914Y-126630000D01*
X103825086Y-126630000D01*
X103947765Y-126654403D01*
X103947765Y-126654403D01*
G37*
G36*
X100310442Y-127245518D02*
X100376627Y-127252037D01*
X100489853Y-127286384D01*
X100546467Y-127303557D01*
X100685087Y-127377652D01*
X100702991Y-127387222D01*
X100738729Y-127416552D01*
X100840186Y-127499814D01*
X100923448Y-127601271D01*
X100952778Y-127637009D01*
X100952779Y-127637011D01*
X101036443Y-127793533D01*
X101036443Y-127793534D01*
X101087963Y-127963373D01*
X101105359Y-128140000D01*
X101087963Y-128316627D01*
X101053616Y-128429853D01*
X101036443Y-128486467D01*
X100962348Y-128625087D01*
X100952778Y-128642991D01*
X100923448Y-128678729D01*
X100840186Y-128780186D01*
X100738729Y-128863448D01*
X100702991Y-128892778D01*
X100702989Y-128892779D01*
X100546467Y-128976443D01*
X100489853Y-128993616D01*
X100376627Y-129027963D01*
X100310442Y-129034482D01*
X100244260Y-129041000D01*
X100155740Y-129041000D01*
X100089558Y-129034482D01*
X100023373Y-129027963D01*
X99910147Y-128993616D01*
X99853533Y-128976443D01*
X99697011Y-128892779D01*
X99697009Y-128892778D01*
X99661271Y-128863448D01*
X99559814Y-128780186D01*
X99476552Y-128678729D01*
X99447222Y-128642991D01*
X99437652Y-128625087D01*
X99363557Y-128486467D01*
X99346384Y-128429853D01*
X99312037Y-128316627D01*
X99294641Y-128140000D01*
X99312037Y-127963373D01*
X99363557Y-127793534D01*
X99363557Y-127793533D01*
X99447221Y-127637011D01*
X99447222Y-127637009D01*
X99476552Y-127601271D01*
X99559814Y-127499814D01*
X99661271Y-127416552D01*
X99697009Y-127387222D01*
X99714913Y-127377652D01*
X99853533Y-127303557D01*
X99910147Y-127286384D01*
X100023373Y-127252037D01*
X100089558Y-127245518D01*
X100155740Y-127239000D01*
X100244260Y-127239000D01*
X100310442Y-127245518D01*
X100310442Y-127245518D01*
G37*
G36*
X109156001Y-128339833D02*
X106054001Y-128339833D01*
X106054001Y-127237833D01*
X109156001Y-127237833D01*
X109156001Y-128339833D01*
X109156001Y-128339833D01*
G37*
G36*
X114196001Y-128339833D02*
X111094001Y-128339833D01*
X111094001Y-127237833D01*
X114196001Y-127237833D01*
X114196001Y-128339833D01*
X114196001Y-128339833D01*
G37*
G36*
X101101000Y-126501000D02*
X99299000Y-126501000D01*
X99299000Y-124699000D01*
X101101000Y-124699000D01*
X101101000Y-126501000D01*
X101101000Y-126501000D01*
G37*
G36*
X114196001Y-125799833D02*
X111094001Y-125799833D01*
X111094001Y-124697833D01*
X114196001Y-124697833D01*
X114196001Y-125799833D01*
X114196001Y-125799833D01*
G37*
G36*
X109156001Y-125799833D02*
X106054001Y-125799833D01*
X106054001Y-124697833D01*
X109156001Y-124697833D01*
X109156001Y-125799833D01*
X109156001Y-125799833D01*
G37*
G36*
X114196001Y-123259833D02*
X111094001Y-123259833D01*
X111094001Y-122157833D01*
X114196001Y-122157833D01*
X114196001Y-123259833D01*
X114196001Y-123259833D01*
G37*
G36*
X109156001Y-123259833D02*
X106054001Y-123259833D01*
X106054001Y-122157833D01*
X109156001Y-122157833D01*
X109156001Y-123259833D01*
X109156001Y-123259833D01*
G37*
G36*
X102821000Y-123251000D02*
X101319000Y-123251000D01*
X101319000Y-121949000D01*
X102821000Y-121949000D01*
X102821000Y-123251000D01*
X102821000Y-123251000D01*
G37*
G36*
X100281000Y-123251000D02*
X98779000Y-123251000D01*
X98779000Y-121949000D01*
X100281000Y-121949000D01*
X100281000Y-123251000D01*
X100281000Y-123251000D01*
G37*
G36*
X102821000Y-121051000D02*
X101319000Y-121051000D01*
X101319000Y-119749000D01*
X102821000Y-119749000D01*
X102821000Y-121051000D01*
X102821000Y-121051000D01*
G37*
G36*
X100281000Y-121051000D02*
X98779000Y-121051000D01*
X98779000Y-119749000D01*
X100281000Y-119749000D01*
X100281000Y-121051000D01*
X100281000Y-121051000D01*
G37*
G36*
X109156001Y-120719833D02*
X106054001Y-120719833D01*
X106054001Y-119617833D01*
X109156001Y-119617833D01*
X109156001Y-120719833D01*
X109156001Y-120719833D01*
G37*
G36*
X114196001Y-120719833D02*
X111094001Y-120719833D01*
X111094001Y-119617833D01*
X114196001Y-119617833D01*
X114196001Y-120719833D01*
X114196001Y-120719833D01*
G37*
G36*
X102017091Y-117478085D02*
X102051069Y-117488393D01*
X102082387Y-117505133D01*
X102109839Y-117527661D01*
X102132367Y-117555113D01*
X102149107Y-117586431D01*
X102159415Y-117620409D01*
X102163500Y-117661890D01*
X102163500Y-118338110D01*
X102159415Y-118379591D01*
X102149107Y-118413569D01*
X102132367Y-118444887D01*
X102109839Y-118472339D01*
X102082387Y-118494867D01*
X102051069Y-118511607D01*
X102017091Y-118521915D01*
X101975610Y-118526000D01*
X101374390Y-118526000D01*
X101332909Y-118521915D01*
X101298931Y-118511607D01*
X101267613Y-118494867D01*
X101240161Y-118472339D01*
X101217633Y-118444887D01*
X101200893Y-118413569D01*
X101190585Y-118379591D01*
X101186500Y-118338110D01*
X101186500Y-117661890D01*
X101190585Y-117620409D01*
X101200893Y-117586431D01*
X101217633Y-117555113D01*
X101240161Y-117527661D01*
X101267613Y-117505133D01*
X101298931Y-117488393D01*
X101332909Y-117478085D01*
X101374390Y-117474000D01*
X101975610Y-117474000D01*
X102017091Y-117478085D01*
X102017091Y-117478085D01*
G37*
G36*
X100442091Y-117478085D02*
X100476069Y-117488393D01*
X100507387Y-117505133D01*
X100534839Y-117527661D01*
X100557367Y-117555113D01*
X100574107Y-117586431D01*
X100584415Y-117620409D01*
X100588500Y-117661890D01*
X100588500Y-118338110D01*
X100584415Y-118379591D01*
X100574107Y-118413569D01*
X100557367Y-118444887D01*
X100534839Y-118472339D01*
X100507387Y-118494867D01*
X100476069Y-118511607D01*
X100442091Y-118521915D01*
X100400610Y-118526000D01*
X99799390Y-118526000D01*
X99757909Y-118521915D01*
X99723931Y-118511607D01*
X99692613Y-118494867D01*
X99665161Y-118472339D01*
X99642633Y-118444887D01*
X99625893Y-118413569D01*
X99615585Y-118379591D01*
X99611500Y-118338110D01*
X99611500Y-117661890D01*
X99615585Y-117620409D01*
X99625893Y-117586431D01*
X99642633Y-117555113D01*
X99665161Y-117527661D01*
X99692613Y-117505133D01*
X99723931Y-117488393D01*
X99757909Y-117478085D01*
X99799390Y-117474000D01*
X100400610Y-117474000D01*
X100442091Y-117478085D01*
X100442091Y-117478085D01*
G37*
G36*
X109156001Y-118179833D02*
X106054001Y-118179833D01*
X106054001Y-117077833D01*
X109156001Y-117077833D01*
X109156001Y-118179833D01*
X109156001Y-118179833D01*
G37*
G36*
X114196001Y-118179833D02*
X111094001Y-118179833D01*
X111094001Y-117077833D01*
X114196001Y-117077833D01*
X114196001Y-118179833D01*
X114196001Y-118179833D01*
G37*
G36*
X100467091Y-115478085D02*
X100501069Y-115488393D01*
X100532387Y-115505133D01*
X100559839Y-115527661D01*
X100582367Y-115555113D01*
X100599107Y-115586431D01*
X100609415Y-115620409D01*
X100613500Y-115661890D01*
X100613500Y-116338110D01*
X100609415Y-116379591D01*
X100599107Y-116413569D01*
X100582367Y-116444887D01*
X100559839Y-116472339D01*
X100532387Y-116494867D01*
X100501069Y-116511607D01*
X100467091Y-116521915D01*
X100425610Y-116526000D01*
X99824390Y-116526000D01*
X99782909Y-116521915D01*
X99748931Y-116511607D01*
X99717613Y-116494867D01*
X99690161Y-116472339D01*
X99667633Y-116444887D01*
X99650893Y-116413569D01*
X99640585Y-116379591D01*
X99636500Y-116338110D01*
X99636500Y-115661890D01*
X99640585Y-115620409D01*
X99650893Y-115586431D01*
X99667633Y-115555113D01*
X99690161Y-115527661D01*
X99717613Y-115505133D01*
X99748931Y-115488393D01*
X99782909Y-115478085D01*
X99824390Y-115474000D01*
X100425610Y-115474000D01*
X100467091Y-115478085D01*
X100467091Y-115478085D01*
G37*
G36*
X102042091Y-115478085D02*
X102076069Y-115488393D01*
X102107387Y-115505133D01*
X102134839Y-115527661D01*
X102157367Y-115555113D01*
X102174107Y-115586431D01*
X102184415Y-115620409D01*
X102188500Y-115661890D01*
X102188500Y-116338110D01*
X102184415Y-116379591D01*
X102174107Y-116413569D01*
X102157367Y-116444887D01*
X102134839Y-116472339D01*
X102107387Y-116494867D01*
X102076069Y-116511607D01*
X102042091Y-116521915D01*
X102000610Y-116526000D01*
X101399390Y-116526000D01*
X101357909Y-116521915D01*
X101323931Y-116511607D01*
X101292613Y-116494867D01*
X101265161Y-116472339D01*
X101242633Y-116444887D01*
X101225893Y-116413569D01*
X101215585Y-116379591D01*
X101211500Y-116338110D01*
X101211500Y-115661890D01*
X101215585Y-115620409D01*
X101225893Y-115586431D01*
X101242633Y-115555113D01*
X101265161Y-115527661D01*
X101292613Y-115505133D01*
X101323931Y-115488393D01*
X101357909Y-115478085D01*
X101399390Y-115474000D01*
X102000610Y-115474000D01*
X102042091Y-115478085D01*
X102042091Y-115478085D01*
G37*
G36*
X109156001Y-115639833D02*
X106054001Y-115639833D01*
X106054001Y-114537833D01*
X109156001Y-114537833D01*
X109156001Y-115639833D01*
X109156001Y-115639833D01*
G37*
G36*
X114196001Y-115639833D02*
X111094001Y-115639833D01*
X111094001Y-114537833D01*
X114196001Y-114537833D01*
X114196001Y-115639833D01*
X114196001Y-115639833D01*
G37*
G36*
X102309466Y-112953565D02*
X102348137Y-112965296D01*
X102383779Y-112984348D01*
X102415017Y-113009983D01*
X102440652Y-113041221D01*
X102459704Y-113076863D01*
X102471435Y-113115534D01*
X102476000Y-113161888D01*
X102476000Y-114238112D01*
X102471435Y-114284466D01*
X102459704Y-114323137D01*
X102440652Y-114358779D01*
X102415017Y-114390017D01*
X102383779Y-114415652D01*
X102348137Y-114434704D01*
X102309466Y-114446435D01*
X102263112Y-114451000D01*
X101611888Y-114451000D01*
X101565534Y-114446435D01*
X101526863Y-114434704D01*
X101491221Y-114415652D01*
X101459983Y-114390017D01*
X101434348Y-114358779D01*
X101415296Y-114323137D01*
X101403565Y-114284466D01*
X101399000Y-114238112D01*
X101399000Y-113161888D01*
X101403565Y-113115534D01*
X101415296Y-113076863D01*
X101434348Y-113041221D01*
X101459983Y-113009983D01*
X101491221Y-112984348D01*
X101526863Y-112965296D01*
X101565534Y-112953565D01*
X101611888Y-112949000D01*
X102263112Y-112949000D01*
X102309466Y-112953565D01*
X102309466Y-112953565D01*
G37*
G36*
X100434466Y-112953565D02*
X100473137Y-112965296D01*
X100508779Y-112984348D01*
X100540017Y-113009983D01*
X100565652Y-113041221D01*
X100584704Y-113076863D01*
X100596435Y-113115534D01*
X100601000Y-113161888D01*
X100601000Y-114238112D01*
X100596435Y-114284466D01*
X100584704Y-114323137D01*
X100565652Y-114358779D01*
X100540017Y-114390017D01*
X100508779Y-114415652D01*
X100473137Y-114434704D01*
X100434466Y-114446435D01*
X100388112Y-114451000D01*
X99736888Y-114451000D01*
X99690534Y-114446435D01*
X99651863Y-114434704D01*
X99616221Y-114415652D01*
X99584983Y-114390017D01*
X99559348Y-114358779D01*
X99540296Y-114323137D01*
X99528565Y-114284466D01*
X99524000Y-114238112D01*
X99524000Y-113161888D01*
X99528565Y-113115534D01*
X99540296Y-113076863D01*
X99559348Y-113041221D01*
X99584983Y-113009983D01*
X99616221Y-112984348D01*
X99651863Y-112965296D01*
X99690534Y-112953565D01*
X99736888Y-112949000D01*
X100388112Y-112949000D01*
X100434466Y-112953565D01*
X100434466Y-112953565D01*
G37*
G36*
X114196001Y-113099833D02*
X111094001Y-113099833D01*
X111094001Y-111997833D01*
X114196001Y-111997833D01*
X114196001Y-113099833D01*
X114196001Y-113099833D01*
G37*
G36*
X109156001Y-113099833D02*
X106054001Y-113099833D01*
X106054001Y-111997833D01*
X109156001Y-111997833D01*
X109156001Y-113099833D01*
X109156001Y-113099833D01*
G37*
G36*
X100667091Y-110278085D02*
X100701069Y-110288393D01*
X100732387Y-110305133D01*
X100759839Y-110327661D01*
X100782367Y-110355113D01*
X100799107Y-110386431D01*
X100809415Y-110420409D01*
X100813500Y-110461890D01*
X100813500Y-111138110D01*
X100809415Y-111179591D01*
X100799107Y-111213569D01*
X100782367Y-111244887D01*
X100759839Y-111272339D01*
X100732387Y-111294867D01*
X100701069Y-111311607D01*
X100667091Y-111321915D01*
X100625610Y-111326000D01*
X100024390Y-111326000D01*
X99982909Y-111321915D01*
X99948931Y-111311607D01*
X99917613Y-111294867D01*
X99890161Y-111272339D01*
X99867633Y-111244887D01*
X99850893Y-111213569D01*
X99840585Y-111179591D01*
X99836500Y-111138110D01*
X99836500Y-110461890D01*
X99840585Y-110420409D01*
X99850893Y-110386431D01*
X99867633Y-110355113D01*
X99890161Y-110327661D01*
X99917613Y-110305133D01*
X99948931Y-110288393D01*
X99982909Y-110278085D01*
X100024390Y-110274000D01*
X100625610Y-110274000D01*
X100667091Y-110278085D01*
X100667091Y-110278085D01*
G37*
G36*
X102242091Y-110278085D02*
X102276069Y-110288393D01*
X102307387Y-110305133D01*
X102334839Y-110327661D01*
X102357367Y-110355113D01*
X102374107Y-110386431D01*
X102384415Y-110420409D01*
X102388500Y-110461890D01*
X102388500Y-111138110D01*
X102384415Y-111179591D01*
X102374107Y-111213569D01*
X102357367Y-111244887D01*
X102334839Y-111272339D01*
X102307387Y-111294867D01*
X102276069Y-111311607D01*
X102242091Y-111321915D01*
X102200610Y-111326000D01*
X101599390Y-111326000D01*
X101557909Y-111321915D01*
X101523931Y-111311607D01*
X101492613Y-111294867D01*
X101465161Y-111272339D01*
X101442633Y-111244887D01*
X101425893Y-111213569D01*
X101415585Y-111179591D01*
X101411500Y-111138110D01*
X101411500Y-110461890D01*
X101415585Y-110420409D01*
X101425893Y-110386431D01*
X101442633Y-110355113D01*
X101465161Y-110327661D01*
X101492613Y-110305133D01*
X101523931Y-110288393D01*
X101557909Y-110278085D01*
X101599390Y-110274000D01*
X102200610Y-110274000D01*
X102242091Y-110278085D01*
X102242091Y-110278085D01*
G37*
G36*
X109156001Y-110559833D02*
X106054001Y-110559833D01*
X106054001Y-109457833D01*
X109156001Y-109457833D01*
X109156001Y-110559833D01*
X109156001Y-110559833D01*
G37*
G36*
X114196001Y-110559833D02*
X111094001Y-110559833D01*
X111094001Y-109457833D01*
X114196001Y-109457833D01*
X114196001Y-110559833D01*
X114196001Y-110559833D01*
G37*
G36*
X100654591Y-107678085D02*
X100688569Y-107688393D01*
X100719887Y-107705133D01*
X100747339Y-107727661D01*
X100769867Y-107755113D01*
X100786607Y-107786431D01*
X100796915Y-107820409D01*
X100801000Y-107861890D01*
X100801000Y-108538110D01*
X100796915Y-108579591D01*
X100786607Y-108613569D01*
X100769867Y-108644887D01*
X100747339Y-108672339D01*
X100719887Y-108694867D01*
X100688569Y-108711607D01*
X100654591Y-108721915D01*
X100613110Y-108726000D01*
X100011890Y-108726000D01*
X99970409Y-108721915D01*
X99936431Y-108711607D01*
X99905113Y-108694867D01*
X99877661Y-108672339D01*
X99855133Y-108644887D01*
X99838393Y-108613569D01*
X99828085Y-108579591D01*
X99824000Y-108538110D01*
X99824000Y-107861890D01*
X99828085Y-107820409D01*
X99838393Y-107786431D01*
X99855133Y-107755113D01*
X99877661Y-107727661D01*
X99905113Y-107705133D01*
X99936431Y-107688393D01*
X99970409Y-107678085D01*
X100011890Y-107674000D01*
X100613110Y-107674000D01*
X100654591Y-107678085D01*
X100654591Y-107678085D01*
G37*
G36*
X102229591Y-107678085D02*
X102263569Y-107688393D01*
X102294887Y-107705133D01*
X102322339Y-107727661D01*
X102344867Y-107755113D01*
X102361607Y-107786431D01*
X102371915Y-107820409D01*
X102376000Y-107861890D01*
X102376000Y-108538110D01*
X102371915Y-108579591D01*
X102361607Y-108613569D01*
X102344867Y-108644887D01*
X102322339Y-108672339D01*
X102294887Y-108694867D01*
X102263569Y-108711607D01*
X102229591Y-108721915D01*
X102188110Y-108726000D01*
X101586890Y-108726000D01*
X101545409Y-108721915D01*
X101511431Y-108711607D01*
X101480113Y-108694867D01*
X101452661Y-108672339D01*
X101430133Y-108644887D01*
X101413393Y-108613569D01*
X101403085Y-108579591D01*
X101399000Y-108538110D01*
X101399000Y-107861890D01*
X101403085Y-107820409D01*
X101413393Y-107786431D01*
X101430133Y-107755113D01*
X101452661Y-107727661D01*
X101480113Y-107705133D01*
X101511431Y-107688393D01*
X101545409Y-107678085D01*
X101586890Y-107674000D01*
X102188110Y-107674000D01*
X102229591Y-107678085D01*
X102229591Y-107678085D01*
G37*
G36*
X114196001Y-108019833D02*
X111094001Y-108019833D01*
X111094001Y-106917833D01*
X114196001Y-106917833D01*
X114196001Y-108019833D01*
X114196001Y-108019833D01*
G37*
G36*
X109156001Y-108019833D02*
X106054001Y-108019833D01*
X106054001Y-106917833D01*
X109156001Y-106917833D01*
X109156001Y-108019833D01*
X109156001Y-108019833D01*
G37*
G36*
X102242091Y-105178085D02*
X102276069Y-105188393D01*
X102307387Y-105205133D01*
X102334839Y-105227661D01*
X102357367Y-105255113D01*
X102374107Y-105286431D01*
X102384415Y-105320409D01*
X102388500Y-105361890D01*
X102388500Y-106038110D01*
X102384415Y-106079591D01*
X102374107Y-106113569D01*
X102357367Y-106144887D01*
X102334839Y-106172339D01*
X102307387Y-106194867D01*
X102276069Y-106211607D01*
X102242091Y-106221915D01*
X102200610Y-106226000D01*
X101599390Y-106226000D01*
X101557909Y-106221915D01*
X101523931Y-106211607D01*
X101492613Y-106194867D01*
X101465161Y-106172339D01*
X101442633Y-106144887D01*
X101425893Y-106113569D01*
X101415585Y-106079591D01*
X101411500Y-106038110D01*
X101411500Y-105361890D01*
X101415585Y-105320409D01*
X101425893Y-105286431D01*
X101442633Y-105255113D01*
X101465161Y-105227661D01*
X101492613Y-105205133D01*
X101523931Y-105188393D01*
X101557909Y-105178085D01*
X101599390Y-105174000D01*
X102200610Y-105174000D01*
X102242091Y-105178085D01*
X102242091Y-105178085D01*
G37*
G36*
X100667091Y-105178085D02*
X100701069Y-105188393D01*
X100732387Y-105205133D01*
X100759839Y-105227661D01*
X100782367Y-105255113D01*
X100799107Y-105286431D01*
X100809415Y-105320409D01*
X100813500Y-105361890D01*
X100813500Y-106038110D01*
X100809415Y-106079591D01*
X100799107Y-106113569D01*
X100782367Y-106144887D01*
X100759839Y-106172339D01*
X100732387Y-106194867D01*
X100701069Y-106211607D01*
X100667091Y-106221915D01*
X100625610Y-106226000D01*
X100024390Y-106226000D01*
X99982909Y-106221915D01*
X99948931Y-106211607D01*
X99917613Y-106194867D01*
X99890161Y-106172339D01*
X99867633Y-106144887D01*
X99850893Y-106113569D01*
X99840585Y-106079591D01*
X99836500Y-106038110D01*
X99836500Y-105361890D01*
X99840585Y-105320409D01*
X99850893Y-105286431D01*
X99867633Y-105255113D01*
X99890161Y-105227661D01*
X99917613Y-105205133D01*
X99948931Y-105188393D01*
X99982909Y-105178085D01*
X100024390Y-105174000D01*
X100625610Y-105174000D01*
X100667091Y-105178085D01*
X100667091Y-105178085D01*
G37*
G36*
X109156001Y-105479833D02*
X106054001Y-105479833D01*
X106054001Y-104377833D01*
X109156001Y-104377833D01*
X109156001Y-105479833D01*
X109156001Y-105479833D01*
G37*
G36*
X114196001Y-105479833D02*
X111094001Y-105479833D01*
X111094001Y-104377833D01*
X114196001Y-104377833D01*
X114196001Y-105479833D01*
X114196001Y-105479833D01*
G37*
G36*
X109156001Y-102939833D02*
X106054001Y-102939833D01*
X106054001Y-101837833D01*
X109156001Y-101837833D01*
X109156001Y-102939833D01*
X109156001Y-102939833D01*
G37*
G36*
X114196001Y-102939833D02*
X111094001Y-102939833D01*
X111094001Y-101837833D01*
X114196001Y-101837833D01*
X114196001Y-102939833D01*
X114196001Y-102939833D01*
G37*
G36*
X102010443Y-99005519D02*
X102076627Y-99012037D01*
X102189853Y-99046384D01*
X102246467Y-99063557D01*
X102385087Y-99137652D01*
X102402991Y-99147222D01*
X102438729Y-99176552D01*
X102540186Y-99259814D01*
X102623448Y-99361271D01*
X102652778Y-99397009D01*
X102652779Y-99397011D01*
X102736443Y-99553533D01*
X102736443Y-99553534D01*
X102787963Y-99723373D01*
X102805359Y-99900000D01*
X102787963Y-100076627D01*
X102753616Y-100189853D01*
X102736443Y-100246467D01*
X102662348Y-100385087D01*
X102652778Y-100402991D01*
X102623448Y-100438729D01*
X102540186Y-100540186D01*
X102438729Y-100623448D01*
X102402991Y-100652778D01*
X102402989Y-100652779D01*
X102246467Y-100736443D01*
X102189853Y-100753616D01*
X102076627Y-100787963D01*
X102010442Y-100794482D01*
X101944260Y-100801000D01*
X101855740Y-100801000D01*
X101789558Y-100794482D01*
X101723373Y-100787963D01*
X101610147Y-100753616D01*
X101553533Y-100736443D01*
X101397011Y-100652779D01*
X101397009Y-100652778D01*
X101361271Y-100623448D01*
X101259814Y-100540186D01*
X101176552Y-100438729D01*
X101147222Y-100402991D01*
X101137652Y-100385087D01*
X101063557Y-100246467D01*
X101046384Y-100189853D01*
X101012037Y-100076627D01*
X100994641Y-99900000D01*
X101012037Y-99723373D01*
X101063557Y-99553534D01*
X101063557Y-99553533D01*
X101147221Y-99397011D01*
X101147222Y-99397009D01*
X101176552Y-99361271D01*
X101259814Y-99259814D01*
X101361271Y-99176552D01*
X101397009Y-99147222D01*
X101414913Y-99137652D01*
X101553533Y-99063557D01*
X101610147Y-99046384D01*
X101723373Y-99012037D01*
X101789557Y-99005519D01*
X101855740Y-98999000D01*
X101944260Y-98999000D01*
X102010443Y-99005519D01*
X102010443Y-99005519D01*
G37*
G36*
X109156001Y-100399833D02*
X106054001Y-100399833D01*
X106054001Y-99297833D01*
X109156001Y-99297833D01*
X109156001Y-100399833D01*
X109156001Y-100399833D01*
G37*
G36*
X114196001Y-100399833D02*
X111094001Y-100399833D01*
X111094001Y-99297833D01*
X114196001Y-99297833D01*
X114196001Y-100399833D01*
X114196001Y-100399833D01*
G37*
G36*
X102010442Y-96465518D02*
X102076627Y-96472037D01*
X102189853Y-96506384D01*
X102246467Y-96523557D01*
X102385087Y-96597652D01*
X102402991Y-96607222D01*
X102438729Y-96636552D01*
X102540186Y-96719814D01*
X102623448Y-96821271D01*
X102652778Y-96857009D01*
X102652779Y-96857011D01*
X102736443Y-97013533D01*
X102736443Y-97013534D01*
X102787963Y-97183373D01*
X102805359Y-97360000D01*
X102787963Y-97536627D01*
X102753616Y-97649853D01*
X102736443Y-97706467D01*
X102662348Y-97845087D01*
X102652778Y-97862991D01*
X102623448Y-97898729D01*
X102540186Y-98000186D01*
X102438729Y-98083448D01*
X102402991Y-98112778D01*
X102402989Y-98112779D01*
X102246467Y-98196443D01*
X102189853Y-98213616D01*
X102076627Y-98247963D01*
X102010442Y-98254482D01*
X101944260Y-98261000D01*
X101855740Y-98261000D01*
X101789557Y-98254481D01*
X101723373Y-98247963D01*
X101610147Y-98213616D01*
X101553533Y-98196443D01*
X101397011Y-98112779D01*
X101397009Y-98112778D01*
X101361271Y-98083448D01*
X101259814Y-98000186D01*
X101176552Y-97898729D01*
X101147222Y-97862991D01*
X101137652Y-97845087D01*
X101063557Y-97706467D01*
X101046384Y-97649853D01*
X101012037Y-97536627D01*
X100994641Y-97360000D01*
X101012037Y-97183373D01*
X101063557Y-97013534D01*
X101063557Y-97013533D01*
X101147221Y-96857011D01*
X101147222Y-96857009D01*
X101176552Y-96821271D01*
X101259814Y-96719814D01*
X101361271Y-96636552D01*
X101397009Y-96607222D01*
X101414913Y-96597652D01*
X101553533Y-96523557D01*
X101610147Y-96506384D01*
X101723373Y-96472037D01*
X101789558Y-96465518D01*
X101855740Y-96459000D01*
X101944260Y-96459000D01*
X102010442Y-96465518D01*
X102010442Y-96465518D01*
G37*
G36*
X114196001Y-97859833D02*
X111094001Y-97859833D01*
X111094001Y-96757833D01*
X114196001Y-96757833D01*
X114196001Y-97859833D01*
X114196001Y-97859833D01*
G37*
G36*
X109156001Y-97859833D02*
X106054001Y-97859833D01*
X106054001Y-96757833D01*
X109156001Y-96757833D01*
X109156001Y-97859833D01*
X109156001Y-97859833D01*
G37*
G36*
X102010443Y-93925519D02*
X102076627Y-93932037D01*
X102189853Y-93966384D01*
X102246467Y-93983557D01*
X102385087Y-94057652D01*
X102402991Y-94067222D01*
X102438729Y-94096552D01*
X102540186Y-94179814D01*
X102623448Y-94281271D01*
X102652778Y-94317009D01*
X102652779Y-94317011D01*
X102736443Y-94473533D01*
X102736443Y-94473534D01*
X102787963Y-94643373D01*
X102805359Y-94820000D01*
X102787963Y-94996627D01*
X102753616Y-95109853D01*
X102736443Y-95166467D01*
X102662348Y-95305087D01*
X102652778Y-95322991D01*
X102623448Y-95358729D01*
X102540186Y-95460186D01*
X102438729Y-95543448D01*
X102402991Y-95572778D01*
X102402989Y-95572779D01*
X102246467Y-95656443D01*
X102189853Y-95673616D01*
X102076627Y-95707963D01*
X102010442Y-95714482D01*
X101944260Y-95721000D01*
X101855740Y-95721000D01*
X101789558Y-95714482D01*
X101723373Y-95707963D01*
X101610147Y-95673616D01*
X101553533Y-95656443D01*
X101397011Y-95572779D01*
X101397009Y-95572778D01*
X101361271Y-95543448D01*
X101259814Y-95460186D01*
X101176552Y-95358729D01*
X101147222Y-95322991D01*
X101137652Y-95305087D01*
X101063557Y-95166467D01*
X101046384Y-95109853D01*
X101012037Y-94996627D01*
X100994641Y-94820000D01*
X101012037Y-94643373D01*
X101063557Y-94473534D01*
X101063557Y-94473533D01*
X101147221Y-94317011D01*
X101147222Y-94317009D01*
X101176552Y-94281271D01*
X101259814Y-94179814D01*
X101361271Y-94096552D01*
X101397009Y-94067222D01*
X101414913Y-94057652D01*
X101553533Y-93983557D01*
X101610147Y-93966384D01*
X101723373Y-93932037D01*
X101789557Y-93925519D01*
X101855740Y-93919000D01*
X101944260Y-93919000D01*
X102010443Y-93925519D01*
X102010443Y-93925519D01*
G37*
G36*
X114196001Y-95319833D02*
X111094001Y-95319833D01*
X111094001Y-94217833D01*
X114196001Y-94217833D01*
X114196001Y-95319833D01*
X114196001Y-95319833D01*
G37*
G36*
X109156001Y-95319833D02*
X106054001Y-95319833D01*
X106054001Y-94217833D01*
X109156001Y-94217833D01*
X109156001Y-95319833D01*
X109156001Y-95319833D01*
G37*
G36*
X102010442Y-91385518D02*
X102076627Y-91392037D01*
X102189853Y-91426384D01*
X102246467Y-91443557D01*
X102385087Y-91517652D01*
X102402991Y-91527222D01*
X102438729Y-91556552D01*
X102540186Y-91639814D01*
X102623448Y-91741271D01*
X102652778Y-91777009D01*
X102652779Y-91777011D01*
X102736443Y-91933533D01*
X102736443Y-91933534D01*
X102787963Y-92103373D01*
X102805359Y-92280000D01*
X102787963Y-92456627D01*
X102753616Y-92569853D01*
X102736443Y-92626467D01*
X102662348Y-92765087D01*
X102652778Y-92782991D01*
X102623448Y-92818729D01*
X102540186Y-92920186D01*
X102438729Y-93003448D01*
X102402991Y-93032778D01*
X102402989Y-93032779D01*
X102246467Y-93116443D01*
X102189853Y-93133616D01*
X102076627Y-93167963D01*
X102010442Y-93174482D01*
X101944260Y-93181000D01*
X101855740Y-93181000D01*
X101789558Y-93174482D01*
X101723373Y-93167963D01*
X101610147Y-93133616D01*
X101553533Y-93116443D01*
X101397011Y-93032779D01*
X101397009Y-93032778D01*
X101361271Y-93003448D01*
X101259814Y-92920186D01*
X101176552Y-92818729D01*
X101147222Y-92782991D01*
X101137652Y-92765087D01*
X101063557Y-92626467D01*
X101046384Y-92569853D01*
X101012037Y-92456627D01*
X100994641Y-92280000D01*
X101012037Y-92103373D01*
X101063557Y-91933534D01*
X101063557Y-91933533D01*
X101147221Y-91777011D01*
X101147222Y-91777009D01*
X101176552Y-91741271D01*
X101259814Y-91639814D01*
X101361271Y-91556552D01*
X101397009Y-91527222D01*
X101414913Y-91517652D01*
X101553533Y-91443557D01*
X101610147Y-91426384D01*
X101723373Y-91392037D01*
X101789558Y-91385518D01*
X101855740Y-91379000D01*
X101944260Y-91379000D01*
X102010442Y-91385518D01*
X102010442Y-91385518D01*
G37*
G36*
X114196001Y-92779833D02*
X111094001Y-92779833D01*
X111094001Y-91677833D01*
X114196001Y-91677833D01*
X114196001Y-92779833D01*
X114196001Y-92779833D01*
G37*
G36*
X109156001Y-92779833D02*
X106054001Y-92779833D01*
X106054001Y-91677833D01*
X109156001Y-91677833D01*
X109156001Y-92779833D01*
X109156001Y-92779833D01*
G37*
G36*
X102010442Y-88845518D02*
X102076627Y-88852037D01*
X102189853Y-88886384D01*
X102246467Y-88903557D01*
X102385087Y-88977652D01*
X102402991Y-88987222D01*
X102438729Y-89016552D01*
X102540186Y-89099814D01*
X102623448Y-89201271D01*
X102652778Y-89237009D01*
X102652779Y-89237011D01*
X102736443Y-89393533D01*
X102736443Y-89393534D01*
X102787963Y-89563373D01*
X102805359Y-89740000D01*
X102787963Y-89916627D01*
X102753616Y-90029853D01*
X102736443Y-90086467D01*
X102662348Y-90225087D01*
X102652778Y-90242991D01*
X102623448Y-90278729D01*
X102540186Y-90380186D01*
X102438729Y-90463448D01*
X102402991Y-90492778D01*
X102402989Y-90492779D01*
X102246467Y-90576443D01*
X102189853Y-90593616D01*
X102076627Y-90627963D01*
X102010443Y-90634481D01*
X101944260Y-90641000D01*
X101855740Y-90641000D01*
X101789557Y-90634481D01*
X101723373Y-90627963D01*
X101610147Y-90593616D01*
X101553533Y-90576443D01*
X101397011Y-90492779D01*
X101397009Y-90492778D01*
X101361271Y-90463448D01*
X101259814Y-90380186D01*
X101176552Y-90278729D01*
X101147222Y-90242991D01*
X101137652Y-90225087D01*
X101063557Y-90086467D01*
X101046384Y-90029853D01*
X101012037Y-89916627D01*
X100994641Y-89740000D01*
X101012037Y-89563373D01*
X101063557Y-89393534D01*
X101063557Y-89393533D01*
X101147221Y-89237011D01*
X101147222Y-89237009D01*
X101176552Y-89201271D01*
X101259814Y-89099814D01*
X101361271Y-89016552D01*
X101397009Y-88987222D01*
X101414913Y-88977652D01*
X101553533Y-88903557D01*
X101610147Y-88886384D01*
X101723373Y-88852037D01*
X101789558Y-88845518D01*
X101855740Y-88839000D01*
X101944260Y-88839000D01*
X102010442Y-88845518D01*
X102010442Y-88845518D01*
G37*
G36*
X114196001Y-90239833D02*
X111094001Y-90239833D01*
X111094001Y-89137833D01*
X114196001Y-89137833D01*
X114196001Y-90239833D01*
X114196001Y-90239833D01*
G37*
G36*
X109156001Y-90239833D02*
X106054001Y-90239833D01*
X106054001Y-89137833D01*
X109156001Y-89137833D01*
X109156001Y-90239833D01*
X109156001Y-90239833D01*
G37*
G36*
X102801000Y-88101000D02*
X100999000Y-88101000D01*
X100999000Y-86299000D01*
X102801000Y-86299000D01*
X102801000Y-88101000D01*
X102801000Y-88101000D01*
G37*
G36*
X109156001Y-87699833D02*
X106054001Y-87699833D01*
X106054001Y-86597833D01*
X109156001Y-86597833D01*
X109156001Y-87699833D01*
X109156001Y-87699833D01*
G37*
G36*
X114196001Y-87699833D02*
X111094001Y-87699833D01*
X111094001Y-86597833D01*
X114196001Y-86597833D01*
X114196001Y-87699833D01*
X114196001Y-87699833D01*
G37*
G36*
X114196001Y-85159833D02*
X111094001Y-85159833D01*
X111094001Y-84057833D01*
X114196001Y-84057833D01*
X114196001Y-85159833D01*
X114196001Y-85159833D01*
G37*
G36*
X109156001Y-85159833D02*
X106054001Y-85159833D01*
X106054001Y-84057833D01*
X109156001Y-84057833D01*
X109156001Y-85159833D01*
X109156001Y-85159833D01*
G37*
G36*
X109156001Y-82619833D02*
X106054001Y-82619833D01*
X106054001Y-81517833D01*
X109156001Y-81517833D01*
X109156001Y-82619833D01*
X109156001Y-82619833D01*
G37*
G36*
X114196001Y-82619833D02*
X111094001Y-82619833D01*
X111094001Y-81517833D01*
X114196001Y-81517833D01*
X114196001Y-82619833D01*
X114196001Y-82619833D01*
G37*
G36*
X99047764Y-78054402D02*
X99170445Y-78078805D01*
X99401571Y-78174541D01*
X99609581Y-78313529D01*
X99786471Y-78490419D01*
X99786473Y-78490422D01*
X99925459Y-78698429D01*
X100021195Y-78929555D01*
X100070000Y-79174916D01*
X100070000Y-79425084D01*
X100021195Y-79670445D01*
X99925459Y-79901571D01*
X99786471Y-80109581D01*
X99609581Y-80286471D01*
X99609578Y-80286473D01*
X99401571Y-80425459D01*
X99170445Y-80521195D01*
X99047764Y-80545598D01*
X98925086Y-80570000D01*
X98674914Y-80570000D01*
X98552236Y-80545598D01*
X98429555Y-80521195D01*
X98198429Y-80425459D01*
X97990422Y-80286473D01*
X97990419Y-80286471D01*
X97813529Y-80109581D01*
X97674541Y-79901571D01*
X97578805Y-79670445D01*
X97530000Y-79425084D01*
X97530000Y-79174916D01*
X97578805Y-78929555D01*
X97674541Y-78698429D01*
X97813527Y-78490422D01*
X97813529Y-78490419D01*
X97990419Y-78313529D01*
X98198429Y-78174541D01*
X98429555Y-78078805D01*
X98552236Y-78054402D01*
X98674914Y-78030000D01*
X98925086Y-78030000D01*
X99047764Y-78054402D01*
X99047764Y-78054402D01*
G37*
G36*
X109156001Y-80079833D02*
X106054001Y-80079833D01*
X106054001Y-78977833D01*
X109156001Y-78977833D01*
X109156001Y-80079833D01*
X109156001Y-80079833D01*
G37*
G36*
X114196001Y-80079833D02*
X111094001Y-80079833D01*
X111094001Y-78977833D01*
X114196001Y-78977833D01*
X114196001Y-80079833D01*
X114196001Y-80079833D01*
G37*
M02*
